<svg width="514" height="514" viewBox="0 0 514 514" fill="none" xmlns="http://www.w3.org/2000/svg">
<path d="M513.59 256.806C513.59 398.627 398.607 513.61 256.784 513.61C114.956 513.61 0 398.627 0 256.806C0 114.962 114.956 0 256.784 0C398.607 0 513.59 114.963 513.59 256.806Z" fill="url(#paint0_linear_4403_507)"/>
<path d="M252.287 163.717C252.287 163.717 251.197 162.66 249.085 160.791C246.991 158.907 243.791 156.287 239.645 153.145C235.479 150.031 230.312 146.437 224.144 142.888C217.991 139.332 210.797 135.859 202.734 133.207C201.728 132.881 200.711 132.552 199.684 132.22C198.649 131.922 197.594 131.665 196.54 131.381C195.478 131.128 194.435 130.764 193.338 130.592C192.254 130.383 191.16 130.171 190.057 129.957C189.506 129.858 188.959 129.723 188.4 129.652C187.841 129.582 187.28 129.511 186.717 129.441C185.597 129.292 184.468 129.142 183.331 128.991C182.191 128.882 181.037 128.855 179.883 128.778C179.306 128.745 178.728 128.711 178.147 128.678L177.276 128.627L176.4 128.649C167.049 128.594 157.347 130.284 147.852 133.822C146.644 134.18 145.495 134.78 144.318 135.281C143.146 135.802 141.971 136.323 140.784 136.823C138.448 137.941 136.159 139.244 133.822 140.44C131.551 141.807 129.309 143.278 127.032 144.687C124.814 146.225 122.624 147.858 120.402 149.437L119.569 150.034L118.772 150.695L117.178 152.023C116.114 152.907 115.048 153.792 113.98 154.679L112.376 156.006L110.844 157.449L107.753 160.315L104.654 163.187L103.177 164.656L101.821 166.073C100.042 167.978 98.3866 170.015 96.8206 172.121C90.4576 180.504 85.9756 190.272 83.5066 200.438L83.0266 202.341L82.6726 204.273L82.3126 206.202C82.1816 206.842 82.0726 207.486 82.0096 208.139C81.8356 209.438 81.6626 210.733 81.4896 212.025C81.3436 213.323 81.2986 214.633 81.1936 215.933L81.0536 217.884L81.0386 219.842C81.0296 221.148 81.0196 222.45 81.0106 223.748C81.0766 225.052 81.1436 226.352 81.2096 227.646C81.2716 228.943 81.2936 230.238 81.4726 231.526C82.4636 241.845 84.7956 251.873 87.7966 261.24C90.7146 270.648 94.5046 279.336 98.1896 287.304C100.106 291.261 101.888 295.101 103.844 298.634C104.786 300.424 105.704 302.168 106.596 303.864C107.031 304.72 107.495 305.545 107.972 306.344C108.435 307.155 108.891 307.952 109.34 308.739C110.237 310.315 111.106 311.842 111.944 313.315C112.779 314.794 113.587 316.221 114.423 317.553C116.06 320.255 117.563 322.737 118.92 324.978C121.65 329.466 123.92 332.932 125.415 335.34C126.922 337.739 127.7 339.05 127.7 339.05C127.7 339.05 126.571 338.044 124.504 336.101C123.471 335.125 122.198 333.922 120.701 332.507C119.204 331.087 117.45 329.48 115.65 327.533C113.806 325.623 111.8 323.471 109.601 321.131C109.056 320.542 108.48 319.955 107.928 319.329C107.387 318.694 106.835 318.047 106.274 317.388C105.149 316.066 103.983 314.697 102.779 313.282C100.308 310.49 97.9516 307.307 95.3986 303.98C92.7836 300.696 90.3856 296.986 87.7576 293.174C86.4046 291.293 85.2406 289.232 83.9826 287.169C83.3586 286.134 82.7286 285.088 82.0936 284.033C81.4576 282.976 80.8006 281.919 80.2266 280.798C79.0246 278.587 77.8526 276.308 76.6386 274C75.4596 271.673 74.4106 269.226 73.2666 266.78C68.9446 256.889 65.2606 245.868 63.3056 233.868C62.9996 232.383 62.8506 230.856 62.6666 229.329C62.4836 227.801 62.3056 226.266 62.1626 224.719C62.0906 223.161 62.0186 221.597 61.9466 220.028L61.8516 217.667L61.8906 215.287C61.9316 213.697 61.9186 212.1 62.0126 210.498C62.1426 208.894 62.2726 207.287 62.4036 205.675C62.4596 204.868 62.5706 204.064 62.7026 203.26L63.0726 200.844L63.4496 198.421L63.9676 196.013C65.3266 189.587 67.2936 183.176 70.0856 177.083C72.8476 170.979 76.2826 165.149 80.3036 159.732C82.3446 157.045 84.5106 154.445 86.8466 151.99L88.6166 150.178L90.3406 148.496L93.8486 145.298C98.4236 140.946 103.485 137.079 108.552 133.319C111.196 131.554 113.771 129.729 116.443 128.057C119.216 126.508 121.939 124.927 124.711 123.458C127.587 122.141 130.392 120.75 133.273 119.552C134.746 119.015 136.213 118.48 137.675 117.947C139.146 117.44 140.569 116.849 142.088 116.491C153.947 112.922 166.207 111.936 177.431 113.192C188.696 114.421 198.779 117.997 207.326 122.211C215.885 126.483 222.968 131.494 228.727 136.402C234.496 141.311 239.011 146.061 242.482 150.143C245.972 154.211 248.367 157.667 249.978 160.013C250.784 161.187 251.343 162.129 251.728 162.755C252.096 163.39 252.287 163.717 252.287 163.717Z" fill="white"/>
<path d="M267.866 207.551C268.525 209.635 269.254 211.683 270.001 213.716C270.731 215.753 271.539 217.759 272.329 219.757C273.954 223.742 275.673 227.659 277.541 231.475C279.385 235.301 281.389 239.021 283.497 242.634C285.632 246.235 287.879 249.728 290.294 253.052C291.503 254.713 292.767 256.321 294.033 257.906C295.304 259.49 296.637 261.008 298.002 262.479C299.367 263.95 300.781 265.356 302.211 266.723C303.643 268.09 305.126 269.382 306.649 270.603C308.16 271.84 309.743 272.965 311.323 274.063C312.902 275.164 314.535 276.165 316.194 277.095C317.846 278.039 319.555 278.861 321.274 279.631C322.992 280.405 324.744 281.085 326.509 281.712L325.702 281.438L326.454 281.68L327.089 281.911L327.704 282.147L328.745 282.555L330.63 283.289C331.864 283.767 333.079 284.218 334.3 284.657L337.955 285.932C339.169 286.358 340.389 286.745 341.605 287.128C342.824 287.509 344.043 287.867 345.262 288.202C345.87 288.382 346.481 288.529 347.09 288.687C347.699 288.84 348.308 289.012 348.916 289.143C350.134 289.431 351.349 289.706 352.56 289.936C353.77 290.216 354.97 290.392 356.172 290.625L354.368 290.46L354.735 290.466L355.009 290.479L355.161 290.488L355.359 290.501L355.644 290.521L356.132 290.556L357.053 290.626L358.852 290.77L362.421 291.076L369.565 291.762C371.959 292.017 374.353 292.315 376.832 292.661C378.077 292.839 379.331 293.027 380.705 293.278C381.4 293.407 382.112 293.55 383.001 293.769C383.466 293.888 383.921 294 384.679 294.256L385.336 294.497L385.774 294.68L386.272 294.909C386.499 295.02 386.803 295.183 387.057 295.332L387.492 295.599C387.741 295.761 387.985 295.935 388.222 296.117C388.459 296.3 388.689 296.491 388.91 296.69C389.313 297.053 389.833 297.608 390.222 298.127C390.426 298.395 390.617 298.672 390.792 298.953L390.921 299.166L391.085 299.454C391.244 299.748 391.393 300.057 391.527 300.376C392.074 301.654 392.361 303.12 392.36 304.445L392.359 305.853L392.025 307.058L391.458 309.105L390.889 311.028C390.497 312.301 390.09 313.568 389.655 314.836C388.774 317.367 387.808 319.899 386.663 322.482C385.501 325.076 384.215 327.682 382.278 330.54C381.287 331.97 380.15 333.483 378.357 335.143C377.446 335.966 376.351 336.843 374.853 337.662C373.353 338.471 371.34 339.225 368.984 339.397L365.214 338.971C365.348 339.018 365.484 339.057 365.622 339.089L365.83 339.13L365.934 339.146C365.959 339.15 365.933 339.146 365.933 339.146C365.89 339.141 365.848 339.132 365.806 339.121L365.086 339.024L363.144 338.836L358.871 338.514L350.034 337.905C344.096 337.423 338.119 336.915 332.122 336.257C329.125 335.9 326.125 335.524 323.116 335.095C320.107 334.658 317.089 334.221 314.07 333.657C311.048 333.091 308.017 332.468 304.969 331.745C303.447 331.389 301.915 330.989 300.381 330.574L298.077 329.887L295.759 329.129L297.048 329.375C296.622 329.312 296.152 329.23 295.909 329.17C295.606 329.104 295.314 329.035 295.07 328.967C294.541 328.833 294.067 328.688 293.588 328.543C292.643 328.251 291.746 327.934 290.861 327.605C289.102 326.94 287.423 326.195 285.778 325.402C284.138 324.596 282.56 323.708 281.01 322.79C279.466 321.862 277.965 320.88 276.504 319.854C275.048 318.82 273.627 317.749 272.267 316.609C270.904 315.474 269.594 314.287 268.313 313.08L266.441 311.223L264.641 309.307C263.487 307.992 262.341 306.677 261.289 305.292C260.2 303.939 259.214 302.512 258.211 301.112C257.277 299.658 256.325 298.228 255.485 296.732C254.6 295.267 253.817 293.748 253.032 292.241C252.298 290.705 251.564 289.178 250.913 287.619C250.259 286.061 249.622 284.506 249.092 282.909C248.513 281.336 248.014 279.738 247.556 278.135C247.062 276.545 246.707 274.911 246.31 273.306C245.941 271.69 245.666 270.051 245.363 268.435L247.709 272.773C248.558 274.18 249.285 275.627 250.173 276.993C251.034 278.37 251.853 279.755 252.775 281.078C253.648 282.426 254.601 283.717 255.525 285.013C256.457 286.304 257.456 287.542 258.442 288.774C259.463 289.981 260.444 291.206 261.52 292.346C262.547 293.525 263.679 294.607 264.753 295.721C265.88 296.788 266.976 297.873 268.15 298.868C269.291 299.897 270.501 300.842 271.701 301.778L273.516 303.157L275.371 304.465C276.63 305.302 277.896 306.111 279.192 306.865C280.493 307.609 281.795 308.333 283.117 309.006C284.442 309.672 285.783 310.291 287.138 310.856C288.496 311.41 289.86 311.933 291.234 312.374C292.599 312.832 293.97 313.244 295.319 313.566C295.991 313.721 296.659 313.867 297.294 313.975C297.606 314.026 297.922 314.08 298.191 314.108C298.344 314.131 298.454 314.137 298.552 314.141C298.709 314.161 298.643 314.128 298.621 314.121L298.6 314.114L299.911 314.367L301.876 314.746L303.884 315.082C305.236 315.303 306.595 315.513 307.978 315.689C310.739 316.051 313.548 316.336 316.38 316.572C319.217 316.792 322.068 317.032 324.938 317.199C327.806 317.377 330.694 317.507 333.586 317.619C339.369 317.892 345.19 318.074 351.054 318.207L359.919 318.496L364.493 318.684L365.695 318.75L366.968 318.838C367.443 318.879 367.889 318.917 368.451 318.982L369.42 319.118L369.556 319.139L369.795 319.186L370.274 319.289C370.592 319.361 370.909 319.442 371.221 319.53L367.452 319.104C366.318 319.171 365.488 319.522 365.062 319.747C364.637 319.972 364.509 320.092 364.509 320.092L364.753 319.795C364.898 319.611 365.08 319.358 365.275 319.057C366.074 317.846 366.975 316.045 367.8 314.166C368.63 312.267 369.405 310.214 370.121 308.115C370.484 307.066 370.836 306.004 371.169 304.937L371.653 303.341L372.078 301.85L371.743 304.463C371.731 305.752 372.009 307.184 372.546 308.426C372.678 308.738 372.824 309.036 372.981 309.322L373.258 309.801C373.422 310.069 373.601 310.331 373.793 310.585C374.157 311.076 374.655 311.601 375.033 311.939C375.224 312.116 375.425 312.285 375.633 312.446C375.841 312.606 376.056 312.758 376.276 312.898L376.615 313.11C376.805 313.223 377.047 313.349 377.208 313.427L377.506 313.566L377.742 313.665L377.986 313.755C378.191 313.82 378.079 313.782 377.976 313.757C377.728 313.693 377.292 313.6 376.838 313.508C375.91 313.321 374.852 313.14 373.78 312.968C371.625 312.622 369.372 312.322 367.116 312.014L360.295 311.122L356.873 310.711L355.176 310.516L354.347 310.424L353.961 310.383L353.808 310.366C353.804 310.365 353.754 310.36 353.787 310.362L353.83 310.364L354.05 310.374L354.362 310.378L352.558 310.213C351.077 309.882 349.572 309.594 348.12 309.208C346.654 308.842 345.216 308.427 343.784 308.001C343.063 307.798 342.362 307.56 341.653 307.337C340.947 307.108 340.236 306.89 339.541 306.643C338.14 306.169 336.753 305.672 335.38 305.156C334.009 304.636 332.641 304.111 331.295 303.552C329.941 303.01 328.613 302.415 327.293 301.821C325.975 301.224 324.661 300.612 323.382 299.995L321.497 299.082L320.652 298.669L320.32 298.505L320.279 298.485L320.343 298.509L320.474 298.552C320.563 298.578 320.653 298.6 320.744 298.616L319.937 298.342C317.704 297.337 315.491 296.289 313.373 295.075C311.259 293.856 309.187 292.574 307.216 291.166C303.252 288.381 299.574 285.254 296.289 281.819C292.988 278.402 289.982 274.772 287.361 270.929C284.725 267.098 282.363 263.141 280.338 259.051C279.322 257.009 278.368 254.948 277.471 252.872C276.573 250.796 275.782 248.682 275.018 246.571C274.267 244.453 273.539 242.338 272.921 240.19C272.294 238.046 271.718 235.895 271.19 233.738C270.164 229.414 269.338 225.066 268.766 220.695C268.465 218.513 268.258 216.32 268.083 214.132C267.936 211.935 267.832 209.741 267.866 207.551Z" fill="white"/>
<path d="M356.118 329.328C356.708 330.199 357.213 331.128 357.684 332.077C358.131 333.031 358.565 334.009 358.927 335.015C359.284 336.021 359.627 337.05 359.892 338.105C360.154 339.159 360.382 340.236 360.554 341.337C360.716 342.438 360.814 343.561 360.86 344.705C360.913 345.851 360.878 347.017 360.766 348.193C360.696 348.782 360.634 349.377 360.543 349.972L360.198 351.769C360.051 352.368 359.871 352.961 359.694 353.562C359.506 354.158 359.264 354.745 359.041 355.341C358.549 356.513 357.999 357.696 357.307 358.81C356.973 359.376 356.614 359.929 356.208 360.448C355.804 360.967 355.43 361.531 354.979 362.011L353.635 363.488L352.178 364.839C351.695 365.311 351.157 365.669 350.631 366.068C350.1 366.45 349.571 366.873 349.018 367.192L347.354 368.207C346.794 368.538 346.226 368.797 345.655 369.093C344.511 369.709 343.356 370.132 342.184 370.589C341.013 371.042 339.856 371.356 338.671 371.717C337.505 372.012 336.34 372.267 335.162 372.53L335.002 372.565L333.684 372.568L329.674 372.575L325.798 372.47C323.223 372.363 320.657 372.21 318.099 371.98C315.538 371.766 312.987 371.476 310.439 371.138C307.89 370.806 305.349 370.401 302.814 369.948C300.279 369.493 297.751 368.972 295.231 368.403C292.712 367.81 290.2 367.196 287.704 366.473C286.451 366.139 285.209 365.758 283.967 365.362C282.725 364.966 281.482 364.599 280.251 364.152L276.56 362.834L272.9 361.386C270.474 360.381 268.065 359.306 265.695 358.125C264.508 357.531 263.333 356.928 262.161 356.308C260.994 355.662 259.844 354.985 258.691 354.325C257.533 353.68 256.421 352.895 255.294 352.185C254.732 351.823 254.171 351.463 253.622 351.079L251.99 349.879C250.911 349.064 249.813 348.32 248.773 347.432C247.731 346.559 246.704 345.685 245.693 344.788C244.709 343.837 243.713 342.916 242.766 341.948C241.816 340.98 240.938 339.905 240.038 338.897C239.115 337.919 238.35 336.743 237.542 335.653L236.359 334.002C235.998 333.416 235.662 332.814 235.318 332.227C234.646 331.039 233.928 329.915 233.426 328.628L232.62 326.773L232.227 325.855L231.927 324.882C231.551 323.581 231.122 322.34 230.881 321.034C230.662 319.717 230.494 318.413 230.367 317.136C231.263 318.115 232.117 319.065 232.922 320.002C233.297 320.484 233.821 320.883 234.249 321.321L235.561 322.599L236.211 323.222L236.914 323.804L238.299 324.948C239.184 325.719 240.164 326.405 241.122 327.08C241.597 327.422 242.078 327.749 242.535 328.094L244.023 329.024C245.012 329.637 245.961 330.256 246.995 330.801C248.019 331.351 248.98 331.943 250.023 332.444C251.08 332.93 252.086 333.465 253.106 333.969C255.237 334.881 257.288 335.85 259.451 336.673L261.047 337.311L262.68 337.898C263.771 338.286 264.825 338.71 265.93 339.072C267.029 339.442 268.13 339.797 269.214 340.182L272.536 341.22C273.628 341.591 274.763 341.888 275.879 342.217C276.994 342.549 278.1 342.893 279.238 343.179L282.615 344.112L286.017 344.998C288.3 345.554 290.566 346.159 292.871 346.678C295.159 347.237 297.472 347.739 299.775 348.273L303.249 349.035L306.734 349.771L313.732 351.204L320.76 352.586L327.806 353.91L331.322 354.549L334.717 355.147L333.238 355.185L335.634 355.128C336.387 355.037 337.202 355.037 337.94 354.926C338.672 354.81 339.45 354.741 340.142 354.579C340.494 354.502 340.876 354.455 341.215 354.36L342.237 354.074C342.598 353.996 342.891 353.848 343.223 353.735C343.544 353.613 343.89 353.505 344.188 353.357L345.138 352.944L346.034 352.447C346.353 352.294 346.599 352.069 346.898 351.884C347.201 351.701 347.463 351.478 347.734 351.253C348.314 350.835 348.826 350.324 349.347 349.789C349.587 349.506 349.857 349.235 350.093 348.933C350.321 348.624 350.552 348.312 350.803 347.999L351.476 346.989L352.096 345.905C352.868 344.411 353.592 342.757 354.115 340.981C354.403 340.096 354.646 339.181 354.861 338.247C355.07 337.312 355.281 336.354 355.434 335.381C355.589 334.407 355.746 333.414 355.851 332.408C355.964 331.397 356.065 330.374 356.118 329.328Z" fill="white"/>
<path d="M333.617 367.081C334.474 368.545 335.048 370.146 335.538 371.8C335.987 373.458 336.298 375.189 336.403 376.98C336.474 377.877 336.472 378.787 336.415 379.708C336.37 380.631 336.265 381.566 336.104 382.511C335.932 383.45 335.684 384.393 335.391 385.34L334.89 386.756C334.693 387.221 334.49 387.69 334.268 388.152C333.795 389.059 333.289 389.975 332.681 390.836C332.393 391.28 332.078 391.705 331.739 392.113C331.4 392.52 331.084 392.966 330.701 393.332L329.571 394.478L328.357 395.527C327.948 395.885 327.513 396.177 327.08 396.489C326.644 396.788 326.209 397.126 325.757 397.381C324.857 397.926 323.932 398.451 322.994 398.875C322.053 399.356 321.105 399.696 320.146 400.057C319.184 400.424 318.239 400.667 317.266 400.953C316.31 401.191 315.358 401.389 314.392 401.597L315.915 401.328C315.567 401.424 315.213 401.506 314.855 401.572L314.277 401.673L313.648 401.785L312.631 401.957C312 402.053 311.36 402.157 310.756 402.23C309.527 402.383 308.329 402.508 307.135 402.605C304.745 402.785 302.376 402.875 300.016 402.85C297.653 402.838 295.303 402.72 292.956 402.531C290.612 402.337 288.28 402.037 285.957 401.679L282.486 401.065L279.042 400.319C276.756 399.772 274.485 399.161 272.242 398.458C270.003 397.745 267.777 396.985 265.596 396.105C263.405 395.258 261.261 394.284 259.143 393.274C257.032 392.241 254.953 391.152 252.935 389.952C251.914 389.377 250.915 388.764 249.936 388.115C248.957 387.469 247.955 386.872 247.01 386.175C245.1 384.818 243.216 383.441 241.433 381.928C239.605 380.487 237.922 378.853 236.23 377.274C234.602 375.606 232.967 373.972 231.49 372.181C229.989 370.418 228.56 368.605 227.246 366.704C225.889 364.851 224.702 362.856 223.554 360.87C222.971 359.887 222.462 358.842 221.965 357.798C221.461 356.762 220.994 355.702 220.555 354.632C222.7 355.605 224.645 356.708 226.643 357.714C228.643 358.716 230.542 359.775 232.505 360.72C233.491 361.187 234.405 361.726 235.376 362.189C236.351 362.645 237.315 363.104 238.258 363.579C239.2 364.057 240.153 364.508 241.115 364.938L243.945 366.277C245.866 367.1 247.713 367.999 249.619 368.773C250.573 369.16 251.487 369.602 252.44 369.972L255.267 371.117C257.163 371.843 259.03 372.601 260.928 373.272L263.758 374.298C264.712 374.611 265.66 374.933 266.6 375.27C268.508 375.874 270.388 376.535 272.307 377.082C273.259 377.375 274.205 377.682 275.17 377.933C276.131 378.195 277.075 378.506 278.041 378.748L280.924 379.52C281.891 379.755 282.859 379.985 283.82 380.243C285.758 380.696 287.696 381.146 289.643 381.561L292.57 382.164L295.506 382.722C297.468 383.055 299.432 383.417 301.399 383.698C303.366 384.004 305.337 384.268 307.286 384.488C308.261 384.614 309.233 384.714 310.173 384.794L311.55 384.921L312.155 384.971L312.336 385C312.627 384.982 311.864 385.082 311.504 385.23L313.027 384.961L314.825 385.051C315.389 385.025 316.007 385.076 316.56 385.034C317.118 385 317.701 384.985 318.229 384.91C318.793 384.872 319.302 384.762 319.836 384.672C320.117 384.643 320.347 384.556 320.609 384.499C320.863 384.435 321.138 384.387 321.372 384.292L322.13 384.057L322.856 383.757C323.114 383.666 323.332 383.532 323.581 383.421C323.832 383.311 324.073 383.183 324.3 383.034C324.785 382.768 325.229 382.431 325.692 382.082C325.905 381.891 326.136 381.707 326.373 381.519L327.035 380.89C327.462 380.445 327.889 379.969 328.28 379.444C328.693 378.929 329.091 378.377 329.453 377.785C329.823 377.197 330.166 376.573 330.506 375.927C330.851 375.282 331.15 374.604 331.443 373.906C331.751 373.21 332.02 372.488 332.276 371.75C332.538 371.011 332.78 370.252 333.002 369.477C333.221 368.694 333.441 367.902 333.617 367.081Z" fill="white"/>
<path d="M268.124 386.679C268.124 386.679 268.343 386.814 268.695 387.111C269.035 387.412 269.574 387.851 270.137 388.481C271.27 389.739 272.735 391.688 273.734 394.543C274.21 395.972 274.64 397.621 274.681 399.531C274.737 401.427 274.471 403.592 273.597 405.81C272.743 408.032 271.157 410.203 269.209 411.843C268.24 412.714 267.185 413.338 266.1 413.97C265.036 414.465 263.899 415.026 262.828 415.308L261.187 415.768C260.656 415.883 260.126 415.957 259.596 416.043C258.522 416.247 257.511 416.272 256.506 416.306C255.484 416.364 254.539 416.276 253.595 416.197C253.125 416.156 252.654 416.11 252.199 416.051C251.753 415.98 251.311 415.886 250.875 415.802C249.111 415.492 247.524 414.958 246.032 414.425C244.556 413.868 243.235 413.173 242.021 412.555C240.84 411.853 239.785 411.164 238.875 410.507C237.965 409.853 237.219 409.177 236.608 408.617C235.995 408.066 235.545 407.549 235.23 407.234C234.918 406.903 234.762 406.702 234.762 406.702C234.762 406.702 235.004 406.605 235.441 406.472C235.874 406.353 236.522 406.123 237.306 405.94C238.097 405.727 239.032 405.561 240.089 405.327C241.144 405.099 242.307 404.896 243.545 404.722C244.775 404.497 246.089 404.317 247.423 404.143C248.75 403.928 250.13 403.807 251.462 403.585C251.799 403.544 252.137 403.492 252.475 403.463C252.799 403.406 253.124 403.35 253.453 403.292C254.101 403.184 254.771 403.118 255.363 402.968C255.977 402.853 256.6 402.754 257.134 402.598C257.41 402.529 257.694 402.464 257.969 402.41C258.213 402.326 258.456 402.244 258.703 402.173L259.078 402.08C259.192 402.041 259.288 401.99 259.394 401.949C259.6 401.859 259.825 401.802 260.038 401.731C260.371 401.534 260.793 401.429 261.069 401.244C261.692 400.914 262.262 400.62 262.826 400.083C263.388 399.555 263.959 398.811 264.471 397.912C264.99 397.021 265.427 395.97 265.8 394.93C266.195 393.886 266.49 392.828 266.775 391.852C267.058 390.873 267.274 389.973 267.481 389.204C267.891 387.596 268.124 386.679 268.124 386.679Z" fill="white"/>
<path d="M379.851 303.618L384.014 299.523L388.101 295.389L392.081 291.163L395.954 286.858C401.044 281.067 405.838 275.067 410.174 268.808C412.341 265.681 414.415 262.503 416.31 259.239C418.235 255.99 420.001 252.672 421.627 249.306C423.272 245.948 424.676 242.497 425.95 239.027C427.234 235.56 428.323 232.041 429.174 228.485C430.879 221.377 431.795 214.157 431.715 206.988C431.617 199.823 430.651 192.718 428.729 185.882C427.787 182.461 426.59 179.115 425.217 175.856C423.844 172.597 422.279 169.421 420.508 166.394C419.625 164.88 418.695 163.402 417.724 161.98C416.769 160.588 415.695 159.137 414.775 158.068C413.667 156.833 412.197 155.051 411.084 153.904L409.309 151.997L407.42 150.086C404.868 147.583 402.232 145.198 399.472 143.011C396.704 140.836 393.838 138.832 390.875 137.035C384.979 133.39 378.66 130.621 372.091 128.826C365.519 127.045 358.712 126.158 351.827 126.212C344.943 126.263 338.002 127.211 331.165 128.889C324.32 130.535 317.569 132.907 311.064 135.868C307.811 137.344 304.62 138.974 301.53 140.727C299.984 141.599 298.459 142.496 296.991 143.423C296.255 143.884 295.54 144.354 294.852 144.819L293.866 145.504L293.13 146.049L289.117 149.569C287.634 150.854 286.273 152.115 284.644 153.428L279.92 157.33C278.346 158.646 276.763 159.821 275.184 161.073C273.612 162.317 272.021 163.535 270.39 164.707C268.764 165.886 267.172 167.098 265.51 168.238C263.857 169.389 262.229 170.557 260.531 171.676C259.682 172.24 258.865 172.808 257.991 173.368C257.109 173.936 256.305 174.468 255.303 175.089L257.155 173.599L256.174 174.556L255.266 175.413L253.455 177.066C252.244 178.149 251.018 179.205 249.771 180.239C247.283 182.312 244.701 184.294 241.996 186.171C239.288 188.048 236.463 189.832 233.455 191.474C231.943 192.289 230.388 193.07 228.773 193.802C227.147 194.525 225.461 195.198 223.696 195.797L224.739 195.363L224.117 195.639L223.815 195.763L223.664 195.819L223.109 196.02L222.345 196.282L221.086 196.719C220.291 197.005 219.528 197.306 218.769 197.627C217.257 198.274 215.788 199.016 214.349 199.83C213.633 200.243 212.926 200.675 212.229 201.126C211.534 201.582 210.853 202.06 210.178 202.552C209.513 203.057 208.849 203.567 208.208 204.109C207.566 204.651 206.926 205.199 206.317 205.785C203.843 208.089 201.614 210.723 199.621 213.583C198.631 215.021 197.694 216.508 196.814 218.051C196.352 218.806 195.963 219.616 195.532 220.396C195.119 221.19 194.74 222.008 194.339 222.813L192.952 225.594L191.098 226.63L187.488 228.648C186.428 229.253 185.383 229.874 184.36 230.514C182.313 231.792 180.342 233.139 178.515 234.553C176.694 235.966 175.007 237.449 173.606 238.935C172.209 240.413 171.141 241.942 170.64 243.108C170.389 243.689 170.249 244.159 170.213 244.516C170.175 244.88 170.18 245.175 170.291 245.58C170.402 245.979 170.651 246.49 171.084 247.065C171.513 247.64 172.112 248.258 172.809 248.885C173.544 249.5 174.344 250.125 175.259 250.709C176.156 251.302 177.138 251.862 178.153 252.404C179.18 252.938 180.243 253.451 181.34 253.94C182.438 254.427 183.569 254.884 184.712 255.334L183.443 255.047C183.558 255.073 183.886 255.121 184.202 255.146C184.514 255.181 184.862 255.198 185.201 255.222C185.893 255.258 186.607 255.273 187.329 255.272C188.774 255.267 190.254 255.192 191.734 255.059C193.217 254.939 194.702 254.713 196.188 254.476C197.669 254.205 199.152 253.9 200.623 253.521C203.569 252.777 206.466 251.784 209.318 250.631L211.443 249.723L213.541 248.736C214.918 248.029 216.304 247.325 217.642 246.528C218.323 246.149 218.993 245.75 219.647 245.323C220.303 244.899 220.981 244.505 221.623 244.056C222.914 243.167 224.221 242.291 225.469 241.325C226.755 240.408 227.944 239.362 229.187 238.375C230.36 237.308 231.601 236.304 232.729 235.174L234.456 233.511L236.132 231.788C237.27 230.653 238.318 229.432 239.393 228.229C240.477 227.032 241.456 225.745 242.499 224.502L245.465 220.634L245.681 220.348L248.214 217.89C249.07 217.075 249.936 216.269 250.81 215.473C252.566 213.888 254.374 212.355 256.243 210.892C258.119 209.439 260.046 208.029 262.176 206.897C263.243 206.352 264.377 205.825 265.661 205.763C266.29 205.743 267.015 205.942 267.406 206.472C267.803 206.977 267.911 207.592 267.953 208.168C267.815 207.606 267.592 207.037 267.185 206.681C266.787 206.309 266.235 206.271 265.722 206.368C264.676 206.609 263.708 207.241 262.798 207.899C260.981 209.259 259.343 210.89 257.763 212.561C256.185 214.239 254.684 215.998 253.209 217.775C252.47 218.663 251.74 219.558 251.021 220.463L248.879 223.209L249.095 222.923C248.258 224.387 247.453 225.877 246.579 227.328C245.666 228.753 244.812 230.225 243.84 231.621C242.877 233.023 241.936 234.447 240.889 235.8L239.345 237.852L237.713 239.839C236.644 241.185 235.442 242.422 234.304 243.72C233.088 244.945 231.922 246.229 230.636 247.396C229.389 248.605 228.08 249.754 226.745 250.878C226.084 251.448 225.38 251.967 224.698 252.515C224.017 253.065 223.315 253.589 222.597 254.095C221.189 255.143 219.714 256.103 218.234 257.065L215.966 258.437C215.201 258.882 214.42 259.298 213.644 259.73C210.519 261.413 207.242 262.842 203.865 264.05C202.177 264.656 200.456 265.182 198.717 265.667C196.969 266.12 195.209 266.553 193.411 266.871C191.616 267.198 189.802 267.476 187.942 267.627C187.012 267.704 186.071 267.762 185.11 267.79C184.621 267.798 184.142 267.811 183.629 267.802C183.118 267.797 182.621 267.783 181.914 267.723L181.462 267.685L180.644 267.437C179.284 267.024 177.921 266.595 176.556 266.115C175.19 265.634 173.82 265.104 172.447 264.522C171.073 263.925 169.696 263.282 168.315 262.527C166.935 261.79 165.55 260.914 164.176 259.931C162.801 258.912 161.442 257.733 160.157 256.29C158.879 254.851 157.673 253.111 156.792 251.054C155.906 249.009 155.4 246.658 155.381 244.376C155.346 242.082 155.791 239.93 156.423 238.022C157.727 234.196 159.712 231.288 161.745 228.754C163.798 226.227 166.001 224.091 168.256 222.132C170.512 220.176 172.826 218.405 175.182 216.746C176.359 215.916 177.549 215.118 178.746 214.342L181.965 212.311L178.725 216.128C179.166 215.087 179.586 214.039 180.051 213.003C180.539 211.975 180.982 210.93 181.517 209.917C182.524 207.866 183.678 205.871 184.902 203.908C187.375 199.996 190.251 196.258 193.568 192.873C194.387 192.018 195.251 191.2 196.125 190.394C197 189.587 197.909 188.815 198.83 188.054C199.762 187.304 200.71 186.575 201.683 185.873C202.659 185.175 203.655 184.503 204.67 183.857C205.69 183.218 206.726 182.602 207.789 182.031C208.849 181.454 209.929 180.913 211.022 180.402C212.116 179.895 213.227 179.416 214.328 178.98L215.926 178.367L216.594 178.115L216.752 178.051L216.779 178.04L216.652 178.089C216.56 178.127 216.468 178.169 216.38 178.214L217.424 177.779C218.484 177.376 219.569 176.904 220.665 176.377C221.763 175.834 222.868 175.235 223.975 174.594C226.187 173.292 228.393 171.807 230.561 170.2C232.722 168.581 234.864 166.868 236.95 165.07C237.992 164.172 239.019 163.252 240.024 162.319L241.506 160.914L242.219 160.214L242.835 159.591L243.568 158.85L244.688 158.101L246.871 156.641C247.621 156.141 248.386 155.587 249.143 155.064C250.665 154.02 252.168 152.897 253.678 151.803C255.196 150.722 256.667 149.553 258.161 148.428C259.659 147.305 261.126 146.139 262.594 144.973C264.046 143.806 265.573 142.659 266.966 141.476L271.193 137.944C272.586 136.822 274.066 135.44 275.506 134.176L277.68 132.242L278.767 131.276L279.31 130.793L279.624 130.516L279.982 130.21L280.228 130.01C280.873 129.492 281.317 129.171 281.815 128.804L283.211 127.82C284.126 127.193 285.028 126.592 285.932 126.018C287.739 124.866 289.546 123.777 291.378 122.744C295.048 120.691 298.784 118.814 302.607 117.108C310.242 113.692 318.209 110.936 326.461 109.004C334.714 107.094 343.274 106.101 351.907 106.192C360.535 106.275 369.246 107.562 377.562 110.148C385.885 112.706 393.802 116.498 400.955 121.242C404.524 123.626 407.915 126.229 411.128 128.994C414.333 131.77 417.331 134.729 420.185 137.788L422.288 140.11L424.372 142.556L425.401 143.784L426.296 144.932L428.15 147.312C429.642 149.28 430.766 151.033 431.909 152.902C433.024 154.75 434.058 156.618 435.025 158.513C436.963 162.3 438.621 166.198 440.039 170.177C441.417 174.169 442.56 178.237 443.402 182.365C445.128 190.61 445.715 199.082 445.119 207.421C444.546 215.762 442.846 223.96 440.167 231.728C437.526 239.514 433.929 246.867 429.707 253.727C425.507 260.604 420.633 266.971 415.39 272.914C410.105 278.828 404.45 284.334 398.494 289.436C397.009 290.715 395.485 291.949 393.973 293.189L389.35 296.796L384.646 300.285L379.851 303.618Z" fill="white"/>
<path d="M119.492 347.528C120.859 344.992 122.313 342.52 123.77 340.049C125.232 337.583 126.732 335.146 128.25 332.722C131.291 327.876 134.412 323.09 137.614 318.365L138.856 316.532L141.118 317.514C143.386 318.5 145.576 319.552 147.79 320.613C149.994 321.687 152.175 322.811 154.356 323.983C156.528 325.184 158.674 326.411 160.859 327.894C161.405 328.278 161.949 328.669 162.524 329.146C162.802 329.364 163.112 329.653 163.414 329.934L163.902 330.443C164.083 330.65 164.284 330.916 164.461 331.16C164.562 331.306 164.7 331.557 164.802 331.761L164.955 332.089L164.991 332.171L165.009 332.213L165.09 332.463L165.103 332.518C165.098 332.497 165.197 332.905 165.229 333.177C165.249 333.32 165.265 333.485 165.273 333.609L165.279 333.768C165.299 334.212 165.295 334.551 165.288 334.909C165.276 335.611 165.231 336.265 165.184 336.929C164.948 339.549 164.501 342.099 163.845 344.638C163.168 347.167 162.264 349.671 161.019 352.087C160.401 353.293 159.655 354.462 158.831 355.588C158.015 356.718 157.041 357.778 155.975 358.744C154.909 359.716 153.672 360.535 152.383 361.229C151.084 361.925 149.675 362.386 148.262 362.717L145.718 362.113C146.031 362.408 146.513 362.666 146.998 362.748C147.118 362.77 147.237 362.783 147.352 362.788L147.521 362.789L147.618 362.785H147.63C147.646 362.783 147.662 362.781 147.677 362.776C147.703 362.765 147.57 362.786 147.524 362.79L147.036 362.855L145.942 363.008C145.198 363.102 144.447 363.196 143.689 363.248C142.175 363.362 140.645 363.394 139.112 363.319C138.345 363.284 137.579 363.202 136.815 363.111C136.05 363.005 135.288 362.878 134.531 362.715C133.774 362.546 133.023 362.354 132.284 362.105C131.545 361.867 130.814 361.592 130.106 361.268C129.39 360.964 128.707 360.58 128.035 360.194C127.374 359.779 126.728 359.353 126.124 358.867C125.81 358.643 125.528 358.375 125.243 358.116C124.958 357.856 124.67 357.605 124.415 357.316C124.154 357.035 123.888 356.761 123.639 356.475L122.939 355.577C122.498 354.964 122.084 354.334 121.723 353.683C121.363 353.03 121.021 352.376 120.747 351.692C120.438 351.026 120.244 350.315 120.014 349.629C119.793 348.939 119.655 348.224 119.492 347.528ZM119.492 347.528C119.856 348.153 120.169 348.792 120.54 349.395C120.926 349.992 121.282 350.596 121.718 351.146C122.109 351.722 122.557 352.251 123.01 352.767C123.464 353.28 123.954 353.756 124.456 354.205L125.224 354.855L126.029 355.447C126.568 355.832 127.136 356.17 127.713 356.478C128.284 356.795 128.885 357.054 129.484 357.302C130.098 357.522 130.706 357.74 131.335 357.903C131.957 358.081 132.593 358.214 133.234 358.316C133.873 358.426 134.522 358.491 135.169 358.552C135.818 358.604 136.472 358.623 137.126 358.628C137.782 358.622 138.437 358.592 139.094 358.554C140.407 358.469 141.72 358.295 143.028 358.045C143.682 357.924 144.336 357.79 144.993 357.641L145.997 357.406L146.558 357.276C146.687 357.251 146.728 357.235 146.931 357.203L147.243 357.163L147.322 357.155L147.436 357.151L147.621 357.154C147.747 357.161 147.877 357.175 148.008 357.198C148.537 357.286 149.064 357.549 149.421 357.848L146.877 357.244C147.793 356.914 148.678 356.552 149.485 356.04C150.284 355.518 151.052 354.943 151.725 354.223C152.397 353.507 153.055 352.758 153.606 351.885C154.166 351.026 154.685 350.118 155.123 349.144C156.042 347.224 156.728 345.12 157.247 342.957C157.784 340.802 158.147 338.558 158.328 336.351C158.373 335.806 158.416 335.252 158.429 334.744C158.438 334.496 158.44 334.228 158.434 334.068L158.433 334C158.435 334.049 158.443 334.139 158.457 334.206C158.473 334.327 158.57 334.583 158.522 334.415L158.51 334.359L158.598 334.63C158.611 334.673 158.627 334.715 158.646 334.756C158.674 334.827 158.754 334.938 158.769 334.959C158.758 334.965 158.783 334.984 158.768 334.961C158.719 334.914 158.672 334.865 158.628 334.814C158.484 334.686 158.359 334.551 158.16 334.395C157.806 334.093 157.372 333.769 156.93 333.453C155.145 332.158 153.12 330.906 151.091 329.697C149.066 328.464 146.987 327.279 144.906 326.092C142.834 324.894 140.712 323.737 138.637 322.572L142.141 321.721C138.548 326.158 134.874 330.534 131.12 334.85C129.241 337.006 127.343 339.149 125.408 341.264C123.465 343.375 121.522 345.484 119.492 347.528Z" fill="white"/>
<path d="M173.513 340.497C176.025 341.079 178.48 341.895 180.896 342.843C183.318 343.783 185.677 344.916 187.968 346.271C190.238 347.657 192.47 349.242 194.364 351.498C194.839 352.057 195.283 352.676 195.682 353.343C195.869 353.692 196.066 354.031 196.236 354.398C196.391 354.778 196.553 355.154 196.69 355.548C196.801 355.958 196.919 356.367 197.008 356.789C197.066 357.223 197.129 357.659 197.158 358.1C197.152 358.544 197.152 358.995 197.115 359.439C197.044 359.877 196.964 360.317 196.875 360.754L196.297 361.789C196.451 361.642 196.615 361.382 196.673 361.251L196.658 361.302L196.604 361.458L196.458 361.876L196.145 362.772L195.484 364.593C195.026 365.807 194.522 367.009 193.993 368.206C192.937 370.603 191.706 372.947 190.264 375.227C189.541 376.368 188.756 377.483 187.885 378.563C187.01 379.641 186.058 380.69 184.997 381.679C184.462 382.173 183.899 382.647 183.295 383.092C182.687 383.532 182.067 383.969 181.381 384.345C180.718 384.741 179.991 385.076 179.248 385.377C178.5 385.68 177.708 385.902 176.904 386.094L178.654 385.142C178.315 385.477 177.817 385.809 177.256 385.992C176.978 386.084 176.69 386.14 176.418 386.164C176.281 386.176 176.149 386.179 176.022 386.176L175.786 386.163L175.463 386.117L175.142 386.057L174.975 386.016C174.761 385.963 174.554 385.905 174.408 385.857L173.491 385.555C172.923 385.352 172.37 385.148 171.83 384.937C170.748 384.516 169.691 384.078 168.64 383.623C166.541 382.711 164.492 381.696 162.454 380.611C160.418 379.514 158.427 378.298 156.456 376.848C155.469 376.107 154.502 375.292 153.544 374.241C153.068 373.722 152.588 373.091 152.15 372.332C151.729 371.511 151.295 370.458 151.383 369.059L151.376 369.268C151.39 368.923 151.465 368.482 151.542 368.225L151.697 367.789C151.808 367.488 151.89 367.345 151.989 367.116C152.177 366.725 152.361 366.362 152.548 366.022C152.92 365.328 153.298 364.681 153.679 364.032C154.436 362.737 155.242 361.495 156.047 360.256C157.662 357.781 159.35 355.37 161.122 353.016C162.883 350.656 164.734 348.356 166.704 346.147C167.705 345.055 168.727 343.98 169.812 342.961C170.358 342.454 170.929 341.971 171.534 341.526C172.128 341.088 172.777 340.637 173.513 340.497ZM173.513 340.497C172.867 340.849 172.407 341.411 171.955 341.966C171.502 342.521 171.109 343.129 170.702 343.72C169.899 344.914 169.161 346.158 168.448 347.414C166.995 349.91 165.634 352.464 164.277 355.014C162.933 357.571 161.61 360.139 160.328 362.71C159.686 363.993 159.071 365.289 158.465 366.564C158.169 367.201 157.873 367.843 157.616 368.46C157.481 368.773 157.366 369.072 157.264 369.349C157.231 369.459 157.156 369.645 157.156 369.69C157.152 369.718 157.147 369.746 157.139 369.772C157.172 369.692 157.225 369.431 157.205 369.265L157.198 369.474C157.243 369.195 157.207 369.205 157.306 369.354C157.454 369.534 157.65 369.782 157.949 370.053C158.523 370.598 159.3 371.16 160.107 371.708C161.755 372.803 163.619 373.776 165.503 374.721C167.396 375.663 169.357 376.52 171.322 377.35C172.305 377.763 173.295 378.162 174.278 378.532L175.731 379.055L176.392 379.265L176.623 379.331C176.633 379.334 176.663 379.343 176.657 379.342C176.619 379.332 176.579 379.324 176.54 379.319C176.5 379.314 176.461 379.311 176.421 379.31L176.211 379.296C176.092 379.293 175.968 379.295 175.841 379.306C175.586 379.327 175.315 379.382 175.054 379.472C174.527 379.651 174.064 379.979 173.759 380.31L175.509 379.358C175.924 379.253 176.343 379.151 176.761 378.984C177.178 378.817 177.6 378.638 178.014 378.392C178.434 378.175 178.844 377.886 179.254 377.6C179.662 377.303 180.063 376.977 180.465 376.636C182.068 375.25 183.513 373.489 184.861 371.605C186.207 369.714 187.413 367.662 188.559 365.553C189.128 364.496 189.663 363.415 190.194 362.324L190.978 360.672L191.369 359.823L191.577 359.371L191.707 359.094L191.787 358.93C191.881 358.73 192.084 358.402 192.277 358.186L191.699 359.221C191.745 359.036 191.8 358.854 191.865 358.669C191.893 358.481 191.917 358.294 191.958 358.103L191.97 357.509L191.893 356.882L191.725 356.227C191.653 356.004 191.55 355.78 191.469 355.551C191.259 355.101 191.035 354.632 190.739 354.176C190.456 353.717 190.134 353.259 189.772 352.817C189.425 352.366 189.024 351.939 188.636 351.497C188.222 351.073 187.813 350.64 187.366 350.231C186.936 349.809 186.465 349.42 186.009 349.012C184.146 347.413 182.111 345.945 180.017 344.526C177.914 343.119 175.74 341.787 173.513 340.497Z" fill="white"/>
<path d="M202.58 367.255C204.447 367.582 206.27 368.108 208.071 368.734C209.877 369.355 211.639 370.129 213.363 371.084C215.072 372.062 216.765 373.194 218.247 374.885C218.985 375.73 219.665 376.746 220.102 378.012C220.544 379.262 220.66 380.804 220.296 382.19L219.722 383.223C219.878 383.067 220.037 382.818 220.107 382.666L220.105 382.687C220.108 382.689 220.094 382.732 220.077 382.784L219.98 383.082L219.763 383.74L219.299 385.087C218.977 385.988 218.613 386.879 218.235 387.77C217.479 389.553 216.582 391.3 215.519 393.012C214.987 393.869 214.403 394.709 213.749 395.526C213.092 396.343 212.374 397.141 211.565 397.901C211.157 398.281 210.726 398.647 210.258 398.991C209.787 399.333 209.308 399.67 208.772 399.965C208.255 400.273 207.683 400.538 207.097 400.774C206.508 401.012 205.88 401.189 205.242 401.339L206.465 400.826C205.727 401.312 205.08 401.482 204.575 401.573C204.063 401.66 203.64 401.671 203.264 401.661C202.524 401.635 201.939 401.528 201.389 401.409C200.305 401.163 199.389 400.836 198.501 400.482C196.737 399.771 195.156 398.893 193.608 397.94C192.065 396.976 190.609 395.888 189.19 394.586C188.479 393.929 187.797 393.206 187.131 392.289C186.801 391.824 186.472 391.308 186.179 390.65C185.9 389.988 185.606 389.133 185.691 387.976L185.684 388.179C185.686 388.056 185.695 387.932 185.709 387.808C185.724 387.675 185.746 387.558 185.755 387.524C185.778 387.418 185.814 387.274 185.838 387.201C185.884 387.055 185.935 386.914 185.974 386.823C186.059 386.61 186.133 386.457 186.208 386.302C186.356 386.002 186.499 385.739 186.642 385.483C186.928 384.973 187.214 384.498 187.503 384.026C188.075 383.083 188.686 382.186 189.294 381.291C190.514 379.507 191.793 377.774 193.139 376.089C194.475 374.398 195.889 372.76 197.39 371.192C198.157 370.421 198.94 369.662 199.767 368.944C200.18 368.585 200.625 368.254 201.08 367.942C201.537 367.642 202.03 367.323 202.58 367.255ZM202.58 367.255C202.121 367.534 201.816 367.966 201.503 368.38C201.198 368.804 200.932 369.258 200.658 369.702C200.113 370.595 199.615 371.522 199.135 372.459C198.151 374.315 197.227 376.207 196.295 378.088C195.376 379.976 194.464 381.865 193.576 383.748L192.289 386.563C192.083 387.026 191.882 387.49 191.706 387.932C191.619 388.152 191.538 388.368 191.477 388.553C191.448 388.642 191.421 388.733 191.418 388.77C191.41 388.803 191.422 388.788 191.43 388.768C191.434 388.758 191.458 388.68 191.466 388.637L191.497 388.451C191.508 388.36 191.513 388.268 191.512 388.179L191.505 388.382C191.54 388.058 191.493 388.022 191.563 388.108C191.629 388.198 191.761 388.376 191.937 388.567C192.289 388.96 192.799 389.401 193.334 389.834C194.418 390.709 195.708 391.502 197.006 392.243C198.307 392.982 199.684 393.624 201.003 394.135C201.656 394.387 202.315 394.599 202.851 394.708C203.111 394.763 203.348 394.788 203.437 394.787C203.476 394.787 203.468 394.777 203.365 394.794C203.267 394.815 203.024 394.856 202.632 395.112L203.856 394.599C204.105 394.535 204.359 394.478 204.618 394.375C204.877 394.272 205.143 394.164 205.41 394.006C205.679 393.87 205.949 393.681 206.22 393.493C206.49 393.299 206.761 393.082 207.035 392.854C208.131 391.929 209.146 390.706 210.115 389.389C211.081 388.067 211.956 386.613 212.801 385.118C213.221 384.368 213.614 383.597 214.01 382.82L214.597 381.64L214.892 381.029L215.053 380.693L215.158 380.474L215.225 380.339C215.32 380.137 215.509 379.838 215.692 379.632L215.119 380.665C215.286 380.271 215.382 379.886 215.31 379.355C215.241 378.833 214.993 378.209 214.629 377.568C213.88 376.285 212.699 375.001 211.405 373.82C210.109 372.622 208.668 371.511 207.191 370.413C205.705 369.329 204.162 368.288 202.58 367.255Z" fill="white"/>
<path d="M224.351 391.292C225.551 391.77 226.694 392.294 227.84 392.812C228.986 393.327 230.108 393.859 231.22 394.391L234.531 395.956C235.082 396.203 235.617 396.485 236.161 396.713C236.702 396.954 237.247 397.183 237.774 397.437L236.47 397.088C236.867 397.089 237.304 397.191 237.664 397.366C238.067 397.555 238.496 397.923 238.752 398.314C238.922 398.572 239.045 398.845 239.126 399.135C239.173 399.31 239.175 399.344 239.189 399.421L239.217 399.636C239.243 399.986 239.226 400.056 239.216 400.223C239.199 400.401 239.189 400.435 239.173 400.54C239.11 400.871 239.054 401.036 239.006 401.194C238.908 401.499 238.824 401.715 238.739 401.929C238.572 402.344 238.409 402.706 238.242 403.061C237.909 403.766 237.547 404.416 237.182 405.065C236.457 406.361 235.647 407.584 234.784 408.789C233.924 409.999 232.963 411.145 231.909 412.282C230.83 413.405 229.66 414.486 228.068 415.48L228.643 415.047C228.397 415.269 228.115 415.47 227.822 415.63C227.545 415.777 227.357 415.841 227.109 415.924C226.845 416.007 226.687 416.033 226.524 416.059C226.363 416.083 226.166 416.106 226.035 416.11C225.511 416.127 225.123 416.074 224.814 416.018C224.187 415.9 223.766 415.751 223.356 415.602C222.554 415.301 221.899 414.977 221.266 414.64C220.008 413.968 218.904 413.202 217.819 412.421C216.738 411.637 215.735 410.773 214.752 409.89C213.774 409.001 212.86 408.04 211.973 407.052L212.665 402.409C212.572 402.456 212.483 402.514 212.403 402.581C212.35 402.626 212.342 402.636 212.344 402.635L212.334 402.65C212.308 402.688 212.336 402.672 212.374 402.644C212.43 402.616 212.544 402.508 212.64 402.422C212.848 402.231 213.077 401.994 213.304 401.754L214.715 400.232C215.666 399.185 216.641 398.121 217.652 397.078C218.653 396.027 219.702 395.002 220.789 394.003C221.347 393.515 221.91 393.029 222.486 392.558C223.08 392.103 223.684 391.641 224.351 391.292ZM224.351 391.292C224.175 391.624 224.016 391.951 223.86 392.28L223.414 393.278C223.111 393.935 222.823 394.601 222.54 395.271C221.947 396.589 221.359 397.914 220.726 399.212C220.102 400.52 219.451 401.811 218.742 403.097C218.385 403.74 218.034 404.39 217.618 405.039C217.411 405.367 217.201 405.696 216.947 406.052C216.81 406.238 216.695 406.405 216.498 406.631C216.413 406.733 216.316 406.845 216.153 406.998L216.043 407.102C216.013 407.131 215.971 407.17 215.88 407.239C215.726 407.356 215.563 407.465 215.397 407.562L216.089 402.919C216.95 403.662 217.861 404.356 218.779 405.035C219.691 405.722 220.648 406.348 221.591 406.963C222.533 407.575 223.513 408.126 224.434 408.598C224.891 408.832 225.349 409.037 225.703 409.159C225.871 409.221 226.038 409.261 226.017 409.25C226.01 409.249 225.93 409.225 225.713 409.235C225.659 409.238 225.537 409.243 225.453 409.259C225.366 409.276 225.284 409.292 225.092 409.345C224.914 409.4 224.805 409.449 224.593 409.557C224.364 409.674 224.146 409.831 223.964 410.01L224.54 409.577C225.316 409.133 226.224 408.351 227.093 407.515C227.983 406.682 228.826 405.726 229.68 404.764C230.528 403.795 231.338 402.773 232.129 401.754C232.522 401.244 232.892 400.72 233.242 400.223C233.417 399.976 233.582 399.729 233.716 399.521C233.78 399.423 233.838 399.325 233.861 399.305C233.873 399.3 233.872 399.3 233.844 399.462L233.822 399.652C233.815 399.775 233.805 399.802 233.825 400.109L233.85 400.292L233.907 400.546C233.98 400.817 234.095 401.069 234.257 401.308C234.497 401.686 234.911 402.037 235.297 402.214C235.636 402.385 236.052 402.481 236.427 402.478L235.123 402.129C234.593 401.749 234.081 401.344 233.564 400.952C233.039 400.564 232.557 400.148 232.073 399.725C231.594 399.3 231.095 398.9 230.643 398.452L229.27 397.129C228.387 396.214 227.508 395.304 226.696 394.32C225.869 393.357 225.072 392.36 224.351 391.292Z" fill="white"/>
<path d="M185.891 378.101L191.302 381.032" stroke="white" stroke-width="6.8848" stroke-miterlimit="10"/>
<path d="M210.68 394.001L218.28 399.541" stroke="white" stroke-width="6.8848" stroke-miterlimit="10"/>
<path d="M156.582 353.183L160.546 357.499" stroke="white" stroke-width="6.8848" stroke-miterlimit="10"/>
<defs>
<linearGradient id="paint0_linear_4403_507" x1="34.3582" y1="128.384" x2="479.22" y2="385.225" gradientUnits="userSpaceOnUse">
<stop stop-color="#A853D7"/>
<stop offset="0.199" stop-color="#C6B6FF"/>
<stop offset="1" stop-color="#C76EFF"/>
</linearGradient>
</defs>
</svg>
