<svg width="87" height="82" viewBox="0 0 87 82" fill="none" xmlns="http://www.w3.org/2000/svg">
<path d="M87.0002 41.0002C87.0002 63.3682 67.5225 81.5033 43.4982 81.5033C19.4731 81.5033 0 63.3682 0 41.0002C0 18.6286 19.4731 0.496765 43.4982 0.496765C67.5225 0.496765 87.0002 18.6287 87.0002 41.0002Z" fill="url(#paint0_linear_4478_5175)"/>
<path d="M42.7336 26.3182C42.7336 26.3182 42.5489 26.1515 42.1912 25.8567C41.8364 25.5596 41.2944 25.1464 40.5921 24.6508C39.8864 24.1597 39.0111 23.5928 37.9663 23.0331C36.924 22.4722 35.7053 21.9245 34.3395 21.5062C34.1691 21.4548 33.9968 21.4029 33.8228 21.3505C33.6475 21.3035 33.4688 21.263 33.2902 21.2182C33.1103 21.1783 32.9337 21.1209 32.7478 21.0937C32.5642 21.0608 32.3789 21.0273 32.192 20.9936C32.0987 20.978 32.006 20.9567 31.9114 20.9455C31.8167 20.9344 31.7216 20.9232 31.6263 20.9122C31.4365 20.8887 31.2453 20.8651 31.0527 20.8412C30.8596 20.824 30.6641 20.8198 30.4686 20.8076C30.3709 20.8024 30.273 20.7971 30.1745 20.7919L30.027 20.7838L29.8786 20.7873C28.2946 20.7786 26.6511 21.0452 25.0427 21.6032C24.838 21.6596 24.6434 21.7543 24.444 21.8333C24.2455 21.9155 24.0465 21.9976 23.8454 22.0765C23.4497 22.2528 23.0619 22.4583 22.6661 22.647C22.2814 22.8626 21.9016 23.0946 21.5159 23.3168C21.1401 23.5594 20.7692 23.8169 20.3928 24.066L20.2516 24.1601L20.1166 24.2644L19.8466 24.4738C19.6664 24.6133 19.4858 24.7528 19.3049 24.8927L19.0332 25.102L18.7737 25.3296L18.2501 25.7817L17.7251 26.2346L17.4749 26.4663L17.2452 26.6898C16.9439 26.9903 16.6635 27.3115 16.3982 27.6437C15.3204 28.9659 14.5611 30.5065 14.1429 32.1098L14.0616 32.41L14.0016 32.7147L13.9406 33.0189C13.9184 33.1199 13.9 33.2215 13.8893 33.3244C13.8598 33.5293 13.8305 33.7336 13.8012 33.9373C13.7765 34.1421 13.7689 34.3487 13.7511 34.5537L13.7274 34.8614L13.7248 35.1702C13.7233 35.3762 13.7216 35.5816 13.7201 35.7863C13.7313 35.992 13.7426 36.197 13.7538 36.4011C13.7643 36.6057 13.768 36.8099 13.7983 37.013C13.9662 38.6406 14.3612 40.2222 14.8696 41.6995C15.3639 43.1834 16.0059 44.5536 16.6301 45.8103C16.9547 46.4344 17.2566 47.0401 17.5879 47.5973C17.7475 47.8796 17.903 48.1547 18.0541 48.4222C18.1278 48.5572 18.2064 48.6873 18.2872 48.8133C18.3656 48.9412 18.4428 49.0669 18.5189 49.1911C18.6708 49.4396 18.818 49.6805 18.96 49.9128C19.1014 50.1461 19.2383 50.3711 19.3799 50.5812C19.6572 51.0074 19.9118 51.3988 20.1417 51.7523C20.6042 52.4601 20.9887 53.0068 21.2419 53.3866C21.4972 53.7649 21.629 53.9717 21.629 53.9717C21.629 53.9717 21.4378 53.813 21.0876 53.5066C20.9126 53.3527 20.697 53.1629 20.4434 52.9398C20.1898 52.7158 19.8927 52.4623 19.5878 52.1553C19.2754 51.854 18.9356 51.5146 18.5631 51.1455C18.4708 51.0526 18.3732 50.96 18.2797 50.8613C18.1881 50.7612 18.0946 50.6591 17.9995 50.5552C17.809 50.3467 17.6114 50.1308 17.4075 49.9076C16.9889 49.4672 16.5898 48.9652 16.1573 48.4405C15.7144 47.9225 15.3082 47.3374 14.863 46.7362C14.6338 46.4395 14.4366 46.1144 14.2235 45.789C14.1178 45.6258 14.0111 45.4608 13.9035 45.2944C13.7958 45.1277 13.6845 44.961 13.5873 44.7842C13.3836 44.4355 13.1851 44.0761 12.9795 43.712C12.7798 43.345 12.6021 42.9591 12.4083 42.5733C11.6761 41.0133 11.0521 39.2751 10.7209 37.3824C10.6691 37.1482 10.6438 36.9074 10.6127 36.6665C10.5817 36.4255 10.5515 36.1834 10.5273 35.9394C10.5151 35.6937 10.5029 35.447 10.4907 35.1996L10.4746 34.8272L10.4812 34.4518C10.4882 34.2011 10.486 33.9492 10.5019 33.6965C10.5239 33.4435 10.5459 33.1901 10.5681 32.9358C10.5776 32.8085 10.5964 32.6817 10.6188 32.5549L10.6814 32.1739L10.7453 31.7917L10.8331 31.4119C11.0633 30.3984 11.3965 29.3873 11.8694 28.4263C12.3373 27.4636 12.9192 26.5441 13.6003 25.6897C13.946 25.2659 14.313 24.8558 14.7087 24.4686L15.0085 24.1828L15.3005 23.9176L15.8948 23.4132C16.6698 22.7268 17.5271 22.1169 18.3854 21.5238C18.8333 21.2455 19.2695 20.9576 19.7221 20.6939C20.1919 20.4496 20.6531 20.2003 21.1227 19.9686C21.6099 19.7609 22.085 19.5415 22.5731 19.3525C22.8226 19.2678 23.0711 19.1834 23.3187 19.0994C23.5679 19.0194 23.809 18.9262 24.0663 18.8697C26.0752 18.3068 28.1519 18.1513 30.0532 18.3494C31.9615 18.5433 33.6695 19.1073 35.1173 19.7719C36.5672 20.4457 37.767 21.236 38.7426 22.0101C39.7198 22.7843 40.4847 23.5335 41.0726 24.1773C41.6638 24.8189 42.0695 25.364 42.3424 25.734C42.479 25.9192 42.5737 26.0678 42.6389 26.1665C42.7012 26.2666 42.7336 26.3182 42.7336 26.3182Z" fill="white"/>
<path d="M45.3744 33.2318C45.4861 33.5604 45.6095 33.8835 45.7361 34.2041C45.8597 34.5254 45.9966 34.8418 46.1304 35.1569C46.4057 35.7854 46.6969 36.4032 47.0133 37.005C47.3257 37.6085 47.6652 38.1952 48.0223 38.765C48.3839 39.333 48.7645 39.8839 49.1736 40.4082C49.3784 40.6701 49.5926 40.9237 49.807 41.1737C50.0223 41.4236 50.2481 41.663 50.4793 41.895C50.7106 42.127 50.9501 42.3487 51.1923 42.5643C51.4349 42.78 51.6861 42.9837 51.9441 43.1763C52.2001 43.3714 52.4682 43.5488 52.7359 43.722C53.0033 43.8957 53.28 44.0535 53.561 44.2002C53.8408 44.3491 54.1303 44.4788 54.4215 44.6002C54.7126 44.7223 55.0093 44.8295 55.3083 44.9284L55.1716 44.8852L55.299 44.9234L55.4066 44.9598L55.5107 44.997L55.6871 45.0614L56.0064 45.1771C56.2154 45.2525 56.4213 45.3237 56.6281 45.3929L57.2472 45.594C57.4529 45.6612 57.6595 45.7222 57.8655 45.7826C58.072 45.8427 58.2785 45.8992 58.485 45.952C58.588 45.9804 58.6915 46.0036 58.7947 46.0285C58.8978 46.0526 59.001 46.0798 59.104 46.1004C59.3103 46.1458 59.5161 46.1892 59.7213 46.2255C59.9262 46.2697 60.1295 46.2974 60.3331 46.3342L60.0275 46.3081L60.0897 46.3091L60.1361 46.3111L60.1619 46.3126L60.1954 46.3146L60.2437 46.3178L60.3263 46.3233L60.4824 46.3343L60.7871 46.357L61.3917 46.4053L62.6018 46.5135C63.0074 46.5537 63.4129 46.6007 63.8328 46.6553C64.0437 46.6834 64.2562 46.713 64.4889 46.7526C64.6066 46.7729 64.7273 46.7955 64.8778 46.83C64.9566 46.8488 65.0337 46.8665 65.1621 46.9068L65.2734 46.9449L65.3476 46.9737L65.4319 47.0098C65.4704 47.0273 65.5219 47.0531 65.5649 47.0766L65.6386 47.1187C65.6808 47.1442 65.7221 47.1717 65.7623 47.2004C65.8024 47.2292 65.8414 47.2594 65.8788 47.2907C65.9471 47.348 66.0352 47.4355 66.1011 47.5174C66.1356 47.5597 66.168 47.6033 66.1976 47.6477L66.2195 47.6813L66.2472 47.7267C66.2742 47.773 66.2994 47.8218 66.3221 47.8721C66.4148 48.0737 66.4634 48.3049 66.4632 48.5139L66.4631 48.7359L66.4065 48.926L66.3104 49.2488L66.214 49.5521C66.1476 49.7529 66.0787 49.9527 66.005 50.1527C65.8558 50.5519 65.6921 50.9513 65.4982 51.3587C65.3013 51.7678 65.0835 52.1788 64.7554 52.6296C64.5875 52.8551 64.3949 53.0937 64.0912 53.3555C63.9369 53.4853 63.7514 53.6237 63.4976 53.7528C63.2435 53.8804 62.9025 53.9994 62.5034 54.0265L61.8648 53.9593C61.8875 53.9667 61.9105 53.9729 61.9339 53.9779L61.9691 53.9844L61.9868 53.9869C61.991 53.9875 61.9866 53.9869 61.9866 53.9869C61.9793 53.9861 61.9722 53.9847 61.9651 53.983L61.8431 53.9677L61.5142 53.938L60.7903 53.8872L59.2934 53.7912C58.2875 53.7151 57.275 53.635 56.2591 53.5312C55.7515 53.4749 55.2433 53.4156 54.7336 53.348C54.2238 53.279 53.7126 53.2101 53.2012 53.1212C52.6893 53.0319 52.1758 52.9336 51.6595 52.8196C51.4017 52.7635 51.1422 52.7004 50.8823 52.6349L50.492 52.5266L50.0994 52.407L50.3177 52.4458C50.2456 52.4359 50.166 52.4229 50.1248 52.4135C50.0735 52.4031 50.024 52.3922 49.9827 52.3815C49.8931 52.3603 49.8128 52.3375 49.7316 52.3146C49.5716 52.2685 49.4196 52.2185 49.2697 52.1666C48.9717 52.0618 48.6873 51.9443 48.4086 51.8192C48.1308 51.6921 47.8635 51.552 47.601 51.4072C47.3394 51.2609 47.0852 51.106 46.8377 50.9442C46.591 50.7811 46.3503 50.6122 46.1199 50.4324C45.889 50.2533 45.6671 50.0661 45.4501 49.8758L45.133 49.5829L44.8281 49.2807C44.6326 49.0733 44.4385 48.8659 44.2603 48.6474C44.0758 48.4341 43.9088 48.209 43.7389 47.9882C43.5807 47.7589 43.4194 47.5333 43.2771 47.2974C43.1272 47.0663 42.9946 46.8267 42.8616 46.589C42.7373 46.3468 42.6129 46.1059 42.5026 45.8601C42.3919 45.6143 42.284 45.3691 42.1942 45.1172C42.0961 44.8691 42.0116 44.6171 41.934 44.3642C41.8503 44.1135 41.7902 43.8558 41.7229 43.6026C41.6604 43.3477 41.6138 43.0892 41.5625 42.8344L41.9599 43.5186C42.1037 43.7405 42.2269 43.9687 42.3773 44.1841C42.5231 44.4013 42.6619 44.6198 42.8181 44.8284C42.9659 45.041 43.1274 45.2446 43.2839 45.449C43.4418 45.6527 43.611 45.8479 43.778 46.0422C43.951 46.2326 44.1172 46.4258 44.2994 46.6056C44.4734 46.7916 44.6652 46.9622 44.8471 47.1379C45.038 47.3062 45.2237 47.4773 45.4225 47.6343C45.6158 47.7965 45.8208 47.9456 46.0241 48.0932L46.3315 48.3107L46.6457 48.517C46.859 48.649 47.0735 48.7766 47.293 48.8955C47.5134 49.0129 47.7339 49.1271 47.9579 49.2332C48.1823 49.3383 48.4095 49.4359 48.639 49.525C48.8691 49.6124 49.1001 49.6949 49.3329 49.7644C49.5641 49.8367 49.7963 49.9016 50.0249 49.9524C50.1387 49.9769 50.2518 49.9999 50.3594 50.0169C50.4123 50.025 50.4658 50.0335 50.5114 50.0379C50.5373 50.0415 50.5559 50.0425 50.5725 50.0431C50.5991 50.0463 50.5879 50.0411 50.5842 50.04L50.5806 50.0388L50.8027 50.0788L51.1356 50.1385L51.4757 50.1915C51.7048 50.2264 51.935 50.2595 52.1692 50.2873C52.6369 50.3444 53.1128 50.3893 53.5925 50.4265C54.0731 50.4612 54.556 50.4991 55.0422 50.5254C55.528 50.5535 56.0172 50.574 56.5071 50.5917C57.4868 50.6347 58.4728 50.6634 59.4662 50.6844L60.9678 50.73L61.7427 50.7596L61.9463 50.77L62.1619 50.7839C62.2424 50.7904 62.3179 50.7964 62.4131 50.8066L62.5773 50.8281L62.6003 50.8314L62.6408 50.8388L62.7219 50.8551C62.7758 50.8664 62.8295 50.8792 62.8824 50.8931L62.2439 50.8259C62.0518 50.8364 61.9112 50.8918 61.8391 50.9273C61.7671 50.9628 61.7454 50.9817 61.7454 50.9817L61.7867 50.9349C61.8113 50.9058 61.8421 50.8659 61.8751 50.8185C62.0105 50.6275 62.1631 50.3434 62.3029 50.0471C62.4435 49.7475 62.5747 49.4237 62.696 49.0927C62.7575 48.9272 62.8171 48.7597 62.8736 48.5915L62.9555 48.3397L63.0275 48.1046L62.9708 48.5167C62.9688 48.72 63.0158 48.9459 63.1068 49.1417C63.1292 49.1909 63.1539 49.2379 63.1805 49.2831L63.2274 49.3586C63.2552 49.4009 63.2855 49.4422 63.318 49.4823C63.3797 49.5597 63.4641 49.6425 63.5281 49.6958C63.5605 49.7237 63.5945 49.7504 63.6297 49.7758C63.665 49.801 63.7014 49.825 63.7387 49.8471L63.7961 49.8805C63.8283 49.8983 63.8693 49.9182 63.8965 49.9305L63.947 49.9524L63.987 49.968L64.0283 49.9822C64.0631 49.9925 64.0441 49.9865 64.0266 49.9825C63.9846 49.9725 63.9108 49.9578 63.8339 49.9433C63.6767 49.9138 63.4974 49.8852 63.3158 49.8581C62.9508 49.8035 62.5691 49.7562 62.187 49.7076L61.0315 49.5669L60.4519 49.5021L60.1644 49.4714L60.024 49.4569L59.9586 49.4504L59.9327 49.4477C59.932 49.4476 59.9235 49.4468 59.9291 49.4471L59.9364 49.4474L59.9737 49.449L60.0265 49.4496L59.7209 49.4236C59.47 49.3714 59.2151 49.326 58.9691 49.2651C58.7208 49.2073 58.4772 49.1419 58.2346 49.0747C58.1125 49.0427 57.9938 49.0052 57.8737 48.97C57.7541 48.9339 57.6336 48.8995 57.5159 48.8605C57.2786 48.7858 57.0436 48.7074 56.811 48.626C56.5788 48.544 56.3471 48.4612 56.1191 48.373C55.8897 48.2875 55.6647 48.1937 55.4411 48.1C55.2179 48.0058 54.9953 47.9093 54.7786 47.812L54.4593 47.668L54.3162 47.6029L54.2599 47.577L54.253 47.5738L54.2638 47.5776L54.286 47.5844C54.3011 47.5885 54.3163 47.592 54.3318 47.5945L54.1951 47.5513C53.8168 47.3928 53.4419 47.2275 53.0831 47.036C52.725 46.8438 52.374 46.6416 52.0402 46.4195C51.3687 45.9802 50.7456 45.4871 50.1892 44.9453C49.63 44.4064 49.1208 43.8338 48.6768 43.2277C48.2303 42.6235 47.8302 41.9994 47.4871 41.3543C47.315 41.0323 47.1534 40.7072 47.0015 40.3798C46.8494 40.0523 46.7154 39.7189 46.5859 39.386C46.4587 39.0519 46.3354 38.7184 46.2307 38.3796C46.1245 38.0414 46.0269 37.7022 45.9375 37.362C45.7637 36.68 45.6238 35.9942 45.5269 35.3048C45.4759 34.9607 45.4408 34.6148 45.4112 34.2697C45.3863 33.9232 45.3687 33.5772 45.3744 33.2318Z" fill="white"/>
<path d="M60.3232 52.4383C60.4232 52.5757 60.5087 52.7222 60.5885 52.8719C60.6642 53.0223 60.7377 53.1766 60.7991 53.3353C60.8595 53.4939 60.9176 53.6562 60.9625 53.8226C61.0069 53.9888 61.0455 54.1587 61.0747 54.3324C61.1021 54.506 61.1187 54.6831 61.1265 54.8636C61.1355 55.0443 61.1295 55.2282 61.1106 55.4137C61.0987 55.5066 61.0882 55.6004 61.0728 55.6943L61.0144 55.9777C60.9895 56.0722 60.959 56.1657 60.929 56.2605C60.8971 56.3545 60.8561 56.4471 60.8184 56.5411C60.735 56.7259 60.6419 56.9125 60.5246 57.0882C60.4681 57.1775 60.4072 57.2647 60.3385 57.3465C60.27 57.4284 60.2067 57.5174 60.1303 57.5931L59.9026 57.826L59.6558 58.0391C59.574 58.1135 59.4828 58.17 59.3937 58.2329C59.3038 58.2932 59.2142 58.3599 59.1205 58.4102L58.8386 58.5703C58.7438 58.6225 58.6476 58.6634 58.5508 58.71C58.357 58.8072 58.1614 58.8739 57.9629 58.946C57.7645 59.0174 57.5685 59.0669 57.3678 59.1239C57.1703 59.1704 56.9729 59.2106 56.7734 59.2521L56.7463 59.2576L56.523 59.2581L55.8437 59.2592L55.1871 59.2426C54.7509 59.2258 54.3163 59.2016 53.883 59.1654C53.4491 59.1316 53.017 59.0859 52.5854 59.0326C52.1536 58.9802 51.7232 58.9163 51.2937 58.8449C50.8643 58.7731 50.4361 58.691 50.0092 58.6012C49.5825 58.5077 49.157 58.4108 48.7342 58.2968C48.5219 58.2441 48.3115 58.184 48.1011 58.1216C47.8907 58.0591 47.6802 58.0012 47.4716 57.9307L46.8464 57.7229L46.2264 57.4945C45.8155 57.336 45.4074 57.1664 45.0059 56.9802C44.8048 56.8865 44.6058 56.7914 44.4073 56.6936C44.2096 56.5917 44.0148 56.4849 43.8195 56.3808C43.6233 56.2791 43.4349 56.1553 43.244 56.0433C43.1488 55.9862 43.0538 55.9294 42.9608 55.8689L42.6843 55.6796C42.5016 55.5511 42.3156 55.4337 42.1394 55.2937C41.9629 55.156 41.7889 55.0181 41.6177 54.8767C41.451 54.7267 41.2822 54.5814 41.1218 54.4287C40.9609 54.2761 40.8122 54.1065 40.6597 53.9475C40.5034 53.7933 40.3738 53.6078 40.2369 53.4359L40.0365 53.1755C39.9754 53.0831 39.9184 52.9881 39.8602 52.8955C39.7463 52.7082 39.6247 52.5309 39.5397 52.3279L39.4031 52.0353L39.3366 51.8905L39.2857 51.7371C39.222 51.5319 39.1494 51.3362 39.1086 51.1302C39.0715 50.9225 39.043 50.7168 39.0215 50.5154C39.1733 50.6698 39.3179 50.8196 39.4543 50.9674C39.5178 51.0434 39.6066 51.1064 39.6791 51.1754L39.9013 51.377L40.0114 51.4753L40.1305 51.5671L40.3651 51.7475C40.5151 51.8691 40.6811 51.9773 40.8433 52.0837C40.9238 52.1377 41.0053 52.1893 41.0827 52.2437L41.3348 52.3904C41.5023 52.487 41.6631 52.5847 41.8382 52.6706C42.0117 52.7574 42.1745 52.8507 42.3511 52.9298C42.5302 53.0064 42.7006 53.0908 42.8734 53.1703C43.2344 53.3141 43.5818 53.467 43.9482 53.5968L44.2186 53.6974L44.4952 53.79C44.68 53.8512 44.8585 53.918 45.0457 53.9751C45.2319 54.0335 45.4184 54.0895 45.602 54.1502L46.1648 54.3139C46.3497 54.3724 46.542 54.4193 46.731 54.4712C46.9199 54.5235 47.1073 54.5778 47.3 54.6229L47.8721 54.77L48.4484 54.9098C48.8351 54.9975 49.219 55.0929 49.6094 55.1747C49.997 55.2629 50.3888 55.3421 50.7789 55.4263L51.3674 55.5465L51.9578 55.6626L53.1432 55.8886L54.3337 56.1066L55.5273 56.3154L56.1229 56.4162L56.698 56.5105L56.4474 56.5165L56.8533 56.5075C56.9809 56.4931 57.1189 56.4931 57.2439 56.4756C57.3679 56.4573 57.4997 56.4464 57.617 56.4209C57.6766 56.4087 57.7413 56.4013 57.7987 56.3863L57.9718 56.3412C58.033 56.3289 58.0826 56.3056 58.1389 56.2878C58.1932 56.2685 58.2518 56.2515 58.3023 56.2282L58.4633 56.163L58.615 56.0846C58.6691 56.0605 58.7107 56.025 58.7614 55.9958C58.8127 55.967 58.8571 55.9318 58.903 55.8963C59.0013 55.8304 59.088 55.7498 59.1762 55.6654C59.2169 55.6208 59.2626 55.578 59.3026 55.5304C59.3412 55.4817 59.3804 55.4325 59.4229 55.3831L59.5369 55.2238L59.6419 55.0528C59.7727 54.8172 59.8953 54.5563 59.9839 54.2762C60.0327 54.1366 60.0739 53.9923 60.1103 53.845C60.1457 53.6975 60.1814 53.5464 60.2074 53.393C60.2336 53.2394 60.2602 53.0827 60.278 52.9241C60.2971 52.7646 60.3142 52.6033 60.3232 52.4383Z" fill="white"/>
<path d="M56.5116 58.3929C56.6568 58.6238 56.7541 58.8763 56.8371 59.1372C56.9131 59.3987 56.9658 59.6717 56.9836 59.9542C56.9956 60.0956 56.9953 60.2392 56.9856 60.3844C56.978 60.53 56.9602 60.6775 56.9329 60.8265C56.9038 60.9746 56.8618 61.1233 56.8122 61.2727L56.7273 61.496C56.6939 61.5694 56.6595 61.6433 56.6219 61.7162C56.5418 61.8593 56.4561 62.0037 56.3531 62.1395C56.3043 62.2096 56.2509 62.2766 56.1935 62.3409C56.1361 62.4051 56.0826 62.4755 56.0177 62.5332L55.8263 62.7139L55.6206 62.8794C55.5513 62.9359 55.4776 62.9819 55.4043 63.0311C55.3304 63.0783 55.2568 63.1316 55.1802 63.1718C55.0277 63.2578 54.871 63.3406 54.7121 63.4074C54.5527 63.4833 54.3922 63.5369 54.2297 63.5939C54.0668 63.6517 53.9067 63.6901 53.7418 63.7352C53.5799 63.7727 53.4186 63.8039 53.255 63.8368L53.513 63.7943C53.454 63.8095 53.3941 63.8224 53.3334 63.8328L53.2355 63.8487L53.129 63.8664L52.9567 63.8935C52.8498 63.9087 52.7414 63.9251 52.6391 63.9366C52.4309 63.9607 52.228 63.9804 52.0257 63.9957C51.6208 64.0241 51.2195 64.0383 50.8198 64.0344C50.4195 64.0325 50.0214 64.0139 49.6238 63.9841C49.2268 63.9535 48.8317 63.9062 48.4382 63.8497L47.8502 63.7528L47.2668 63.6352C46.8796 63.5489 46.4949 63.4525 46.115 63.3417C45.7357 63.2292 45.3586 63.1093 44.9892 62.9706C44.618 62.837 44.2548 62.6833 43.896 62.524C43.5384 62.3611 43.1863 62.1894 42.8444 62.0001C42.6715 61.9094 42.5022 61.8127 42.3364 61.7104C42.1706 61.6085 42.0008 61.5143 41.8407 61.4044C41.5172 61.1904 41.1981 60.9732 40.896 60.7346C40.5864 60.5073 40.3013 60.2496 40.0147 60.0005C39.7389 59.7375 39.4619 59.4797 39.2117 59.1973C38.9575 58.9192 38.7154 58.6333 38.4928 58.3334C38.2629 58.0412 38.0619 57.7265 37.8674 57.4133C37.7686 57.2583 37.6824 57.0934 37.5982 56.9288C37.5128 56.7654 37.4337 56.5982 37.3594 56.4294C37.7227 56.5829 38.0522 56.7569 38.3907 56.9155C38.7295 57.0736 39.0511 57.2406 39.3837 57.3896C39.5507 57.4633 39.7055 57.5483 39.87 57.6213C40.0352 57.6932 40.1985 57.7656 40.3582 57.8406C40.5178 57.9159 40.6792 57.9871 40.8422 58.0549L41.3216 58.2661C41.647 58.3959 41.9598 58.5377 42.2827 58.6598C42.4443 58.7208 42.5991 58.7905 42.7606 58.8489L43.2395 59.0295C43.5606 59.144 43.8769 59.2635 44.1984 59.3693L44.6778 59.5312C44.8394 59.5805 45 59.6313 45.1592 59.6845C45.4824 59.7797 45.8009 59.884 46.126 59.9702C46.2872 60.0165 46.4475 60.0649 46.6109 60.1045C46.7737 60.1458 46.9336 60.1948 47.0973 60.233L47.5857 60.3548C47.7495 60.3918 47.9134 60.4281 48.0762 60.4688C48.4045 60.5402 48.7328 60.6112 49.0626 60.6767L49.5584 60.7718L50.0558 60.8598C50.3881 60.9123 50.7208 60.9694 51.054 61.0137C51.3872 61.062 51.7211 61.1036 52.0513 61.1383C52.2164 61.1582 52.3811 61.174 52.5403 61.1866L52.7736 61.2066L52.8761 61.2145L52.9067 61.2191C52.956 61.2162 52.8268 61.232 52.7658 61.2553L53.0238 61.2129L53.3284 61.2271C53.4239 61.223 53.5286 61.2311 53.6223 61.2244C53.7168 61.2191 53.8155 61.2167 53.905 61.2049C54.0005 61.1989 54.0867 61.1815 54.1772 61.1673C54.2248 61.1628 54.2638 61.149 54.3081 61.1401C54.3512 61.13 54.3977 61.1224 54.4374 61.1074L54.5658 61.0703L54.6888 61.023C54.7325 61.0087 54.7694 60.9875 54.8116 60.97C54.8541 60.9527 54.8949 60.9325 54.9334 60.909C55.0155 60.867 55.0907 60.8139 55.1692 60.7588C55.2053 60.7287 55.2444 60.6997 55.2845 60.6701L55.3967 60.5708C55.469 60.5007 55.5413 60.4256 55.6076 60.3428C55.6775 60.2616 55.745 60.1745 55.8063 60.0811C55.869 59.9884 55.9271 59.89 55.9847 59.7881C56.0431 59.6864 56.0937 59.5794 56.1434 59.4693C56.1956 59.3596 56.2411 59.2457 56.2845 59.1293C56.3289 59.0127 56.3699 58.893 56.4075 58.7708C56.4446 58.6473 56.4818 58.5224 56.5116 58.3929Z" fill="white"/>
<path d="M45.417 61.4838C45.417 61.4838 45.4541 61.505 45.5137 61.5519C45.5713 61.5994 45.6626 61.6686 45.758 61.768C45.9499 61.9664 46.1981 62.2738 46.3673 62.7241C46.448 62.9494 46.5208 63.2095 46.5278 63.5108C46.5372 63.8098 46.4922 64.1513 46.3441 64.5011C46.1995 64.8516 45.9308 65.194 45.6008 65.4526C45.4367 65.59 45.258 65.6884 45.0742 65.7881C44.8939 65.8662 44.7013 65.9546 44.5199 65.9991L44.2419 66.0717C44.152 66.0898 44.0622 66.1015 43.9724 66.115C43.7905 66.1472 43.6192 66.1512 43.449 66.1565C43.2759 66.1657 43.1158 66.1518 42.9559 66.1393C42.8762 66.1329 42.7965 66.1256 42.7194 66.1163C42.6438 66.1051 42.569 66.0903 42.4951 66.077C42.1963 66.0281 41.9275 65.9439 41.6747 65.8599C41.4247 65.772 41.2009 65.6624 40.9953 65.5649C40.7952 65.4542 40.6165 65.3455 40.4624 65.2419C40.3082 65.1388 40.1818 65.0321 40.0783 64.9438C39.9745 64.8569 39.8983 64.7754 39.8449 64.7257C39.792 64.6735 39.7656 64.6418 39.7656 64.6418C39.7656 64.6418 39.8066 64.6265 39.8806 64.6055C39.954 64.5867 40.0638 64.5505 40.1966 64.5216C40.3306 64.488 40.4889 64.4618 40.668 64.4249C40.8467 64.389 41.0437 64.3569 41.2534 64.3295C41.4618 64.294 41.6844 64.2656 41.9104 64.2382C42.1351 64.2043 42.3689 64.1852 42.5945 64.1502C42.6516 64.1437 42.7089 64.1355 42.7661 64.1309C42.821 64.1219 42.8761 64.1131 42.9318 64.104C43.0416 64.0869 43.1551 64.0765 43.2554 64.0529C43.3594 64.0347 43.4649 64.0191 43.5554 63.9945C43.6021 63.9836 43.6502 63.9734 43.6968 63.9648C43.7381 63.9516 43.7793 63.9387 43.8211 63.9275L43.8847 63.9128C43.904 63.9067 43.9202 63.8986 43.9382 63.8921C43.9731 63.8779 44.0112 63.869 44.0473 63.8578C44.1037 63.8267 44.1752 63.8101 44.2219 63.781C44.3275 63.7289 44.424 63.6825 44.5196 63.5978C44.6148 63.5146 44.7115 63.3972 44.7982 63.2554C44.8861 63.1149 44.9602 62.9491 45.0233 62.7851C45.0903 62.6204 45.1402 62.4536 45.1885 62.2996C45.2364 62.1452 45.273 62.0033 45.3081 61.882C45.3775 61.6284 45.417 61.4838 45.417 61.4838Z" fill="white"/>
<path d="M64.343 48.3835L65.0482 47.7376L65.7406 47.0856L66.4148 46.4191L67.0708 45.7401C67.9331 44.8267 68.7451 43.8804 69.4796 42.8932C69.8467 42.4001 70.1981 41.8988 70.5191 41.384C70.8451 40.8716 71.1443 40.3483 71.4197 39.8174C71.6984 39.2878 71.9362 38.7435 72.152 38.1962C72.3695 37.6494 72.554 37.0944 72.6982 36.5335C72.987 35.4124 73.1422 34.2737 73.1286 33.143C73.112 32.0129 72.9484 30.8923 72.6228 29.8142C72.4632 29.2746 72.2605 28.7469 72.0279 28.2329C71.7953 27.7189 71.5302 27.2179 71.2302 26.7405C71.0806 26.5017 70.9231 26.2686 70.7586 26.0443C70.5968 25.8248 70.4149 25.596 70.259 25.4273C70.0713 25.2326 69.8223 24.9515 69.6338 24.7706L69.3331 24.4698L69.0131 24.1684C68.5808 23.7737 68.1343 23.3975 67.6668 23.0526C67.1979 22.7095 66.7124 22.3935 66.2105 22.11C65.2117 21.5351 64.1413 21.0984 63.0285 20.8153C61.9153 20.5344 60.7622 20.3945 59.5959 20.403C58.4298 20.4111 57.254 20.5606 56.0958 20.8252C54.9363 21.0848 53.7927 21.459 52.6908 21.926C52.1397 22.1588 51.5992 22.4158 51.0758 22.6923C50.8139 22.8299 50.5556 22.9713 50.3069 23.1175C50.1822 23.1903 50.0611 23.2644 49.9445 23.3377L49.7775 23.4458L49.6528 23.5317L48.9731 24.0869C48.7218 24.2896 48.4913 24.4884 48.2153 24.6955L47.4151 25.311C47.1485 25.5185 46.8803 25.7038 46.6129 25.9013C46.3466 26.0975 46.0771 26.2896 45.8008 26.4745C45.5253 26.6604 45.2557 26.8516 44.9741 27.0314C44.6941 27.2129 44.4183 27.3971 44.1307 27.5736C43.9869 27.6626 43.8485 27.7521 43.7004 27.8405C43.551 27.93 43.4148 28.014 43.2451 28.1119L43.5588 27.8769L43.3926 28.0278L43.2388 28.163L42.932 28.4237C42.7269 28.5945 42.5192 28.7611 42.308 28.9242C41.8865 29.2511 41.4492 29.5637 40.9909 29.8598C40.5322 30.1558 40.0537 30.4372 39.5441 30.6961C39.288 30.8247 39.0246 30.9479 38.751 31.0633C38.4756 31.1773 38.19 31.2835 37.891 31.378L38.0677 31.3095L37.9623 31.353L37.9111 31.3726L37.8856 31.3814L37.7915 31.4131L37.6621 31.4545L37.4489 31.5234C37.3142 31.5685 37.1849 31.616 37.0564 31.6666C36.8002 31.7686 36.5514 31.8857 36.3076 32.014C36.1864 32.0792 36.0666 32.1473 35.9485 32.2184C35.8308 32.2904 35.7154 32.3658 35.6011 32.4434C35.4884 32.523 35.376 32.6034 35.2674 32.6889C35.1586 32.7744 35.0502 32.8608 34.9471 32.9533C34.528 33.3167 34.1504 33.7321 33.8128 34.1832C33.6451 34.41 33.4863 34.6445 33.3373 34.8879C33.259 35.0069 33.1931 35.1347 33.1201 35.2577C33.0502 35.3829 32.986 35.512 32.918 35.6389L32.6831 36.0775L32.369 36.2409L31.7575 36.5592C31.5779 36.6546 31.4009 36.7526 31.2276 36.8535C30.8809 37.0551 30.547 37.2675 30.2375 37.4905C29.929 37.7134 29.6433 37.9473 29.4059 38.1817C29.1693 38.4148 28.9884 38.6559 28.9035 38.8398C28.861 38.9315 28.8373 39.0056 28.8312 39.0619C28.8247 39.1193 28.8256 39.1659 28.8444 39.2297C28.8632 39.2927 28.9054 39.3733 28.9787 39.4639C29.0514 39.5546 29.1529 39.6521 29.2709 39.751C29.3954 39.848 29.5309 39.9466 29.6859 40.0387C29.8379 40.1322 30.0042 40.2205 30.1762 40.306C30.3501 40.3902 30.5302 40.4711 30.716 40.5483C30.902 40.6251 31.0936 40.6972 31.2872 40.7681L31.0723 40.7229C31.0918 40.727 31.1473 40.7345 31.2009 40.7385C31.2537 40.744 31.3127 40.7467 31.3701 40.7505C31.4873 40.7561 31.6083 40.7585 31.7306 40.7584C31.9753 40.7576 32.226 40.7457 32.4767 40.7248C32.728 40.7058 32.9795 40.6702 33.2312 40.6328C33.4821 40.5901 33.7333 40.542 33.9825 40.4822C34.4816 40.3648 34.9723 40.2082 35.4554 40.0264L35.8154 39.8832L36.1708 39.7275C36.404 39.616 36.6388 39.5049 36.8655 39.3792C36.9808 39.3195 37.0943 39.2565 37.2051 39.1892C37.3162 39.1223 37.4311 39.0602 37.5398 38.9894C37.7585 38.8492 37.9799 38.711 38.1913 38.5586C38.4092 38.414 38.6106 38.249 38.8211 38.0934C39.0198 37.9251 39.2301 37.7667 39.4211 37.5885L39.7137 37.3262L39.9976 37.0545C40.1904 36.8754 40.3679 36.6829 40.55 36.4931C40.7336 36.3043 40.8995 36.1014 41.0761 35.9053L41.5786 35.2953L41.6152 35.2501L42.0442 34.8625C42.1892 34.7339 42.3359 34.6068 42.484 34.4813C42.7815 34.2313 43.0877 33.9895 43.4043 33.7587C43.7221 33.5296 44.0485 33.3072 44.4094 33.1287C44.5901 33.0427 44.7822 32.9596 44.9997 32.9498C45.1062 32.9466 45.2291 32.978 45.2953 33.0616C45.3625 33.1413 45.3808 33.2383 45.388 33.3291C45.3646 33.2405 45.3268 33.1507 45.2579 33.0946C45.1904 33.0359 45.0969 33.0299 45.01 33.0452C44.8328 33.0832 44.6689 33.1829 44.5147 33.2867C44.2069 33.5012 43.9294 33.7584 43.6618 34.022C43.3945 34.2866 43.1402 34.5641 42.8904 34.8443C42.7652 34.9844 42.6415 35.1255 42.5197 35.2683L42.1569 35.7014L42.1935 35.6563C42.0517 35.8872 41.9153 36.1222 41.7673 36.351C41.6126 36.5758 41.468 36.8079 41.3033 37.0281C41.1402 37.2492 40.9808 37.4738 40.8034 37.6872L40.5419 38.0109L40.2654 38.3243C40.0843 38.5365 39.8807 38.7317 39.6879 38.9364C39.482 39.1296 39.2844 39.3321 39.0666 39.5161C38.8554 39.7068 38.6336 39.8881 38.4075 40.0653C38.2955 40.1552 38.1763 40.2371 38.0607 40.3235C37.9454 40.4103 37.8264 40.4929 37.7048 40.5727C37.4663 40.738 37.2164 40.8894 36.9657 41.0411L36.5816 41.2575C36.452 41.3277 36.3197 41.3933 36.1882 41.4615C35.6589 41.7269 35.1037 41.9523 34.5317 42.1428C34.2458 42.2384 33.9542 42.3214 33.6596 42.3978C33.3635 42.4693 33.0654 42.5376 32.7608 42.5877C32.4568 42.6393 32.1495 42.6832 31.8344 42.707C31.6769 42.7191 31.5175 42.7283 31.3547 42.7327C31.2718 42.7339 31.1907 42.736 31.1038 42.7346C31.0172 42.7338 30.933 42.7316 30.8133 42.7221L30.7367 42.7161L30.5981 42.677C30.3678 42.6119 30.1369 42.5442 29.9057 42.4685C29.6743 42.3926 29.4422 42.3091 29.2096 42.2173C28.9769 42.1231 28.7436 42.0217 28.5097 41.9026C28.2759 41.7864 28.0413 41.6482 27.8085 41.4932C27.5756 41.3325 27.3454 41.1465 27.1277 40.9189C26.9112 40.6919 26.7069 40.4175 26.5577 40.0931C26.4076 39.7705 26.3219 39.3997 26.3187 39.0398C26.3128 38.678 26.3881 38.3386 26.4952 38.0377C26.7161 37.4342 27.0523 36.9756 27.3967 36.5759C27.7445 36.1774 28.1177 35.8405 28.4997 35.5315C28.8818 35.223 29.2738 34.9437 29.6729 34.682C29.8723 34.5511 30.0739 34.4253 30.2766 34.3029L30.8219 33.9825L30.2731 34.5846C30.3478 34.4204 30.4189 34.2551 30.4977 34.0917C30.5804 33.9296 30.6554 33.7647 30.746 33.605C30.9166 33.2815 31.1121 32.9668 31.3194 32.6572C31.7383 32.0402 32.2255 31.4507 32.7874 30.9168C32.9262 30.7819 33.0725 30.6529 33.2206 30.5258C33.3688 30.3985 33.5228 30.2768 33.6788 30.1567C33.8367 30.0384 33.9972 29.9235 34.1621 29.8127C34.3274 29.7027 34.4961 29.5967 34.6681 29.4948C34.8408 29.394 35.0163 29.2968 35.1964 29.2068C35.376 29.1158 35.5589 29.0305 35.7441 28.9499C35.9294 28.8699 36.1176 28.7944 36.3041 28.7256L36.5748 28.6289L36.6879 28.5892L36.7147 28.5791L36.7193 28.5773L36.6978 28.5851C36.6822 28.5911 36.6666 28.5977 36.6517 28.6048L36.8285 28.5362C37.0081 28.4726 37.1919 28.3982 37.3775 28.315C37.5635 28.2294 37.7507 28.1349 37.9382 28.0338C38.313 27.8285 38.6866 27.5943 39.0539 27.3408C39.42 27.0855 39.7828 26.8153 40.1362 26.5317C40.3127 26.3901 40.4866 26.245 40.6569 26.0978L40.9079 25.8762L41.0287 25.7658L41.1331 25.6676L41.2572 25.5507L41.447 25.4326L41.8167 25.2023C41.9438 25.1234 42.0734 25.036 42.2016 24.9536C42.4594 24.7889 42.714 24.6118 42.9698 24.4392C43.227 24.2687 43.4761 24.0844 43.7292 23.9069C43.983 23.7298 44.2315 23.5459 44.4802 23.362C44.7261 23.1779 44.9848 22.997 45.2208 22.8105L45.9368 22.2534C46.1728 22.0764 46.4235 21.8585 46.6674 21.6591L47.0357 21.3541L47.2198 21.2017L47.3118 21.1255L47.365 21.0819L47.4256 21.0336L47.4673 21.002C47.5766 20.9203 47.6518 20.8697 47.7361 20.8118L47.9726 20.6566C48.1276 20.5577 48.2804 20.463 48.4335 20.3724C48.7396 20.1907 49.0457 20.019 49.3561 19.8561C49.9777 19.5323 50.6106 19.2362 51.2582 18.9671C52.5515 18.4284 53.9011 17.9937 55.299 17.689C56.697 17.3877 58.147 17.2311 59.6094 17.2455C61.071 17.2586 62.5466 17.4615 63.9553 17.8694C65.3652 18.2729 66.7063 18.8709 67.918 19.6192C68.5226 19.9952 69.097 20.4057 69.6413 20.8418C70.1842 21.2796 70.692 21.7463 71.1755 22.2288L71.5317 22.595L71.8847 22.9808L72.059 23.1745L72.2107 23.3555L72.5247 23.7309C72.7775 24.0413 72.9679 24.3178 73.1615 24.6126C73.3503 24.904 73.5255 25.1987 73.6893 25.4975C74.0176 26.0948 74.2985 26.7096 74.5387 27.3372C74.7721 27.9668 74.9657 28.6084 75.1083 29.2595C75.4007 30.5599 75.5002 31.8961 75.3992 33.2113C75.3021 34.5268 75.0142 35.8198 74.5603 37.045C74.113 38.273 73.5037 39.4327 72.7885 40.5147C72.077 41.5993 71.2514 42.6035 70.3632 43.5408C69.468 44.4736 68.51 45.342 67.5011 46.1467C67.2495 46.3484 66.9914 46.543 66.7353 46.7386L65.9521 47.3075L65.1553 47.8578L64.343 48.3835Z" fill="white"/>
<path d="M20.2402 55.3089C20.4718 54.9089 20.7181 54.519 20.9649 54.1293C21.2126 53.7403 21.4667 53.356 21.7238 52.9737C22.2389 52.2093 22.7676 51.4545 23.31 50.7093L23.5204 50.4202L23.9036 50.575C24.2878 50.7306 24.6588 50.8965 25.0338 51.0638C25.4072 51.2332 25.7766 51.4105 26.1461 51.5953C26.514 51.7848 26.8775 51.9783 27.2476 52.2122C27.3401 52.2727 27.4323 52.3344 27.5297 52.4096C27.5768 52.444 27.6293 52.4896 27.6805 52.5339L27.7631 52.6142C27.7938 52.6469 27.8278 52.6888 27.8578 52.7273C27.8749 52.7503 27.8983 52.7899 27.9156 52.8221L27.9415 52.8738L27.9476 52.8867L27.9506 52.8934L27.9644 52.9328L27.9666 52.9415C27.9657 52.9382 27.9825 53.0025 27.9879 53.0454C27.9913 53.068 27.994 53.094 27.9954 53.1135L27.9964 53.1386C27.9998 53.2087 27.9991 53.2621 27.9979 53.3186C27.9959 53.4293 27.9882 53.5325 27.9803 53.6372C27.9403 54.0504 27.8646 54.4526 27.7535 54.853C27.6388 55.2519 27.4856 55.6468 27.2747 56.0279C27.1701 56.2181 27.0437 56.4025 26.9041 56.5801C26.7659 56.7583 26.6009 56.9255 26.4203 57.0778C26.2397 57.2311 26.0302 57.3603 25.8118 57.4698C25.5918 57.5795 25.3531 57.6523 25.1138 57.7045L24.6828 57.6092C24.7358 57.6557 24.8175 57.6964 24.8996 57.7093C24.92 57.7128 24.9401 57.7149 24.9596 57.7157L24.9882 57.7158L25.0047 57.7152H25.0067C25.0094 57.7149 25.0121 57.7146 25.0147 57.7138C25.0191 57.712 24.9965 57.7153 24.9887 57.716L24.9061 57.7262L24.7208 57.7504C24.5947 57.7652 24.4675 57.78 24.3391 57.7882C24.0826 57.8062 23.8235 57.8112 23.5638 57.7994C23.4339 57.7939 23.3041 57.7809 23.1747 57.7666C23.0451 57.7499 22.916 57.7298 22.7878 57.7041C22.6596 57.6775 22.5323 57.6472 22.4071 57.6079C22.282 57.5704 22.1581 57.527 22.0382 57.4759C21.9169 57.428 21.8012 57.3674 21.6874 57.3065C21.5754 57.2411 21.466 57.1739 21.3637 57.0972C21.3105 57.0619 21.2627 57.0196 21.2144 56.9788C21.1662 56.9378 21.1174 56.8982 21.0742 56.8526C21.03 56.8083 20.9849 56.7651 20.9427 56.72L20.8241 56.5783C20.7494 56.4817 20.6793 56.3823 20.6182 56.2796C20.5572 56.1766 20.4992 56.0735 20.4528 55.9656C20.4005 55.8606 20.3676 55.7484 20.3287 55.6402C20.2912 55.5314 20.2678 55.4186 20.2402 55.3089ZM20.2402 55.3089C20.3019 55.4074 20.3549 55.5082 20.4178 55.6033C20.4831 55.6975 20.5435 55.7927 20.6173 55.8795C20.6835 55.9703 20.7594 56.0538 20.8362 56.1351C20.9131 56.2161 20.9961 56.2911 21.0811 56.362L21.2112 56.4645L21.3476 56.5578C21.4389 56.6186 21.5351 56.6719 21.6328 56.7204C21.7296 56.7704 21.8314 56.8113 21.9328 56.8504C22.0368 56.8851 22.1398 56.9195 22.2464 56.9452C22.3518 56.9733 22.4595 56.9942 22.5681 57.0103C22.6763 57.0277 22.7863 57.0379 22.8959 57.0476C23.0058 57.0558 23.1166 57.0588 23.2274 57.0595C23.3385 57.0586 23.4494 57.0539 23.5607 57.0479C23.7832 57.0345 24.0056 57.007 24.2271 56.9676C24.3379 56.9485 24.4487 56.9274 24.56 56.9039L24.7301 56.8668L24.8251 56.8463C24.847 56.8424 24.8539 56.8398 24.8883 56.8348L24.9411 56.8285L24.9545 56.8272L24.9738 56.8266L25.0052 56.8271C25.0265 56.8282 25.0485 56.8304 25.0707 56.834C25.1603 56.8479 25.2496 56.8894 25.3101 56.9365L24.8791 56.8413C25.0343 56.7892 25.1842 56.7321 25.3209 56.6514C25.4563 56.569 25.5864 56.4783 25.7004 56.3648C25.8142 56.2519 25.9257 56.1337 26.019 55.996C26.1139 55.8606 26.2018 55.7173 26.276 55.5637C26.4317 55.2609 26.5479 54.9291 26.6358 54.5879C26.7268 54.248 26.7882 53.8941 26.8189 53.546C26.8265 53.4601 26.8338 53.3727 26.836 53.2926C26.8375 53.2534 26.8379 53.2112 26.8369 53.1859L26.8367 53.1752C26.837 53.1829 26.8384 53.1971 26.8408 53.2077C26.8435 53.2268 26.8599 53.2672 26.8518 53.2407L26.8497 53.2318L26.8646 53.2746C26.8668 53.2814 26.8696 53.288 26.8728 53.2945C26.8775 53.3057 26.8911 53.3232 26.8936 53.3265C26.8917 53.3274 26.896 53.3304 26.8934 53.3268C26.8851 53.3194 26.8772 53.3116 26.8697 53.3036C26.8453 53.2834 26.8242 53.2621 26.7904 53.2375C26.7305 53.1899 26.657 53.1388 26.5821 53.0889C26.2797 52.8847 25.9367 52.6872 25.593 52.4965C25.25 52.3021 24.8978 52.1152 24.5453 51.928C24.1943 51.739 23.8348 51.5565 23.4833 51.3728L24.0769 51.2386C23.4682 51.9384 22.8459 52.6286 22.21 53.3093C21.8917 53.6493 21.5702 53.9873 21.2424 54.3209C20.9132 54.6538 20.5841 54.9865 20.2402 55.3089Z" fill="white"/>
<path d="M29.3913 54.2C29.8168 54.2917 30.2327 54.4204 30.642 54.57C31.0522 54.7182 31.4518 54.8969 31.8399 55.1106C32.2245 55.3292 32.6025 55.5792 32.9234 55.935C33.0038 56.0232 33.0791 56.1208 33.1466 56.226C33.1783 56.2811 33.2117 56.3345 33.2405 56.3924C33.2667 56.4524 33.2942 56.5117 33.3174 56.5738C33.3362 56.6385 33.3562 56.703 33.3713 56.7695C33.3811 56.838 33.3918 56.9067 33.3967 56.9763C33.3957 57.0463 33.3957 57.1175 33.3894 57.1875C33.3774 57.2566 33.3638 57.326 33.3487 57.3949L33.2508 57.5581C33.2769 57.5349 33.3047 57.4939 33.3145 57.4733L33.312 57.4813L33.3028 57.5059L33.2781 57.5718L33.2251 57.7132L33.1131 58.0004C33.0355 58.1918 32.9501 58.3814 32.8605 58.5702C32.6817 58.9483 32.4731 59.318 32.2289 59.6776C32.1064 59.8575 31.9734 60.0334 31.8259 60.2037C31.6776 60.3737 31.5164 60.5392 31.3366 60.6952C31.246 60.7731 31.1507 60.8478 31.0483 60.918C30.9453 60.9874 30.8403 61.0563 30.7241 61.1156C30.6118 61.1781 30.4887 61.2309 30.3628 61.2784C30.2361 61.3262 30.1019 61.3612 29.9657 61.3915L30.2622 61.2414C30.2047 61.2942 30.1204 61.3466 30.0254 61.3754C29.9783 61.3899 29.9295 61.3988 29.8834 61.4025C29.8602 61.4044 29.8378 61.4049 29.8163 61.4044L29.7763 61.4024L29.7216 61.3951L29.6673 61.3857L29.639 61.3792C29.6027 61.3708 29.5676 61.3617 29.5429 61.3541L29.3876 61.3065C29.2914 61.2745 29.1977 61.2423 29.1062 61.209C28.9229 61.1426 28.7439 61.0735 28.5658 61.0018C28.2103 60.8579 27.8632 60.6978 27.518 60.5267C27.1731 60.3537 26.8358 60.1619 26.5019 59.9332C26.3347 59.8164 26.1709 59.6878 26.0086 59.522C25.928 59.4402 25.8467 59.3407 25.7725 59.221C25.7012 59.0915 25.6277 58.9254 25.6426 58.7047L25.6414 58.7377C25.6438 58.6833 25.6565 58.6137 25.6695 58.5732L25.6958 58.5044C25.7146 58.457 25.7285 58.4344 25.7452 58.3983C25.7771 58.3366 25.8082 58.2794 25.8399 58.2257C25.9029 58.1163 25.967 58.0142 26.0315 57.9119C26.1597 57.7076 26.2963 57.5118 26.4326 57.3163C26.7062 56.926 26.9921 56.5457 27.2923 56.1744C27.5906 55.8022 27.9042 55.4395 28.2379 55.0911C28.4075 54.9188 28.5806 54.7493 28.7644 54.5886C28.8569 54.5086 28.9536 54.4324 29.0561 54.3622C29.1567 54.2932 29.2666 54.222 29.3913 54.2ZM29.3913 54.2C29.2819 54.2555 29.204 54.3441 29.1274 54.4316C29.0506 54.5192 28.9841 54.6151 28.9151 54.7083C28.7791 54.8966 28.6541 55.0928 28.5333 55.2909C28.2872 55.6846 28.0566 56.0874 27.8268 56.4896C27.5991 56.8929 27.375 57.2979 27.1578 57.7034C27.0491 57.9057 26.9449 58.1101 26.8422 58.3112C26.7921 58.4117 26.7419 58.513 26.6984 58.6103C26.6755 58.6596 26.6561 58.7068 26.6388 58.7505C26.6332 58.7678 26.6205 58.7972 26.6205 58.8043C26.6198 58.8087 26.619 58.8131 26.6176 58.8172C26.6232 58.8046 26.6322 58.7634 26.6288 58.7372L26.6276 58.7702C26.6352 58.7262 26.6291 58.7278 26.6459 58.7513C26.671 58.7797 26.7042 58.8188 26.7548 58.8615C26.8521 58.9475 26.9837 59.0361 27.1204 59.1225C27.3995 59.2953 27.7153 59.4487 28.0344 59.5978C28.3551 59.7463 28.6873 59.8815 29.0202 60.0124C29.1867 60.0775 29.3544 60.1405 29.5209 60.1988L29.767 60.2813L29.879 60.3144L29.9181 60.3248C29.9198 60.3253 29.9249 60.3267 29.9239 60.3266C29.9174 60.325 29.9107 60.3237 29.9041 60.3229C29.8973 60.3222 29.8907 60.3217 29.8839 60.3215L29.8483 60.3193C29.8282 60.3188 29.8072 60.3192 29.7857 60.3209C29.7425 60.3242 29.6966 60.3329 29.6523 60.3471C29.5631 60.3753 29.4846 60.427 29.433 60.4793L29.7294 60.3291C29.7997 60.3125 29.8707 60.2965 29.9415 60.2701C30.0121 60.2438 30.0836 60.2155 30.1538 60.1767C30.2249 60.1425 30.2944 60.0969 30.3638 60.0518C30.4329 60.005 30.5008 59.9536 30.5689 59.8998C30.8405 59.6812 31.0853 59.4034 31.3136 59.1063C31.5416 58.8081 31.7459 58.4844 31.94 58.1518C32.0364 57.9851 32.1271 57.8146 32.217 57.6425L32.3498 57.382L32.416 57.248L32.4513 57.1768L32.4733 57.1331L32.4869 57.1072C32.5028 57.0757 32.5372 57.0239 32.5699 56.9899L32.4719 57.1531C32.4797 57.1239 32.4891 57.0952 32.5001 57.066C32.5048 57.0364 32.5089 57.0069 32.5158 56.9768L32.5179 56.8831L32.5048 56.7842L32.4763 56.6809C32.4642 56.6457 32.4467 56.6104 32.433 56.5743C32.3974 56.5033 32.3595 56.4293 32.3093 56.3574C32.2614 56.285 32.2068 56.2128 32.1455 56.1431C32.0867 56.0719 32.0188 56.0046 31.9531 55.9349C31.883 55.868 31.8137 55.7997 31.7379 55.7352C31.6651 55.6686 31.5853 55.6073 31.5081 55.5429C31.1925 55.2907 30.8478 55.0592 30.4931 54.8354C30.1368 54.6135 29.7686 54.4034 29.3913 54.2Z" fill="white"/>
<path d="M34.3146 58.4202C34.6309 58.4718 34.9397 58.5548 35.2448 58.6535C35.5507 58.7514 35.8492 58.8735 36.1412 59.0241C36.4307 59.1784 36.7175 59.3569 36.9686 59.6236C37.0936 59.7569 37.2088 59.9171 37.2828 60.1168C37.3577 60.314 37.3773 60.5572 37.3157 60.7758L37.2184 60.9387C37.2448 60.9141 37.2718 60.8748 37.2836 60.8508L37.2833 60.8542C37.2838 60.8545 37.2814 60.8613 37.2786 60.8695L37.2621 60.9165L37.2254 61.0202L37.1468 61.2327C37.0922 61.3748 37.0306 61.5153 36.9665 61.6559C36.8385 61.9371 36.6865 62.2126 36.5064 62.4826C36.4163 62.6178 36.3174 62.7503 36.2066 62.8791C36.0953 63.008 35.9737 63.1338 35.8367 63.2537C35.7675 63.3136 35.6945 63.3714 35.6153 63.4256C35.5355 63.4796 35.4543 63.5327 35.3635 63.5792C35.276 63.6278 35.1791 63.6696 35.0798 63.7068C34.98 63.7444 34.8736 63.7723 34.7656 63.7959L34.9727 63.715C34.8477 63.7917 34.7381 63.8185 34.6526 63.8329C34.5658 63.8466 34.4942 63.8483 34.4305 63.8467C34.3051 63.8426 34.206 63.8258 34.1129 63.807C33.9293 63.7682 33.7741 63.7166 33.6237 63.6608C33.3248 63.5486 33.057 63.4102 32.7948 63.2599C32.5334 63.1078 32.2868 62.9362 32.0464 62.7309C31.926 62.6272 31.8104 62.5132 31.6976 62.3686C31.6417 62.2952 31.586 62.2139 31.5364 62.1101C31.4891 62.0057 31.4393 61.8708 31.4537 61.6883L31.4525 61.7204C31.4528 61.701 31.4544 61.6814 31.4567 61.6618C31.4593 61.6409 31.463 61.6224 31.4645 61.617C31.4684 61.6003 31.4745 61.5776 31.4786 61.5661C31.4864 61.5431 31.495 61.5208 31.5016 61.5065C31.516 61.4729 31.5286 61.4488 31.5413 61.4243C31.5663 61.377 31.5906 61.3355 31.6148 61.2951C31.6632 61.2147 31.7117 61.1398 31.7606 61.0653C31.8575 60.9166 31.961 60.7751 32.064 60.634C32.2707 60.3526 32.4874 60.0793 32.7154 59.8135C32.9417 59.5468 33.1812 59.2885 33.4355 59.0412C33.5654 58.9196 33.698 58.7999 33.8381 58.6866C33.9081 58.63 33.9835 58.5778 34.0605 58.5286C34.1379 58.4813 34.2215 58.431 34.3146 58.4202ZM34.3146 58.4202C34.2369 58.4642 34.1852 58.5324 34.1322 58.5977C34.0805 58.6645 34.0355 58.7361 33.989 58.8062C33.8967 58.947 33.8124 59.0932 33.7311 59.241C33.5644 59.5337 33.4079 59.8321 33.25 60.1288C33.0943 60.4266 32.9398 60.7245 32.7894 61.0215L32.5714 61.4655C32.5365 61.5385 32.5024 61.6117 32.4726 61.6814C32.4579 61.7161 32.4442 61.7502 32.4338 61.7793C32.4289 61.7934 32.4243 61.8077 32.4238 61.8136C32.4225 61.8188 32.4245 61.8164 32.4259 61.8133C32.4265 61.8117 32.4306 61.7994 32.432 61.7926L32.4372 61.7633C32.4391 61.7489 32.4399 61.7344 32.4398 61.7204L32.4386 61.7524C32.4445 61.7013 32.4365 61.6956 32.4484 61.7092C32.4596 61.7233 32.4819 61.7514 32.5117 61.7816C32.5714 61.8435 32.6578 61.9131 32.7484 61.9814C32.932 62.1194 33.1505 62.2445 33.3704 62.3613C33.5908 62.4779 33.8241 62.5791 34.0475 62.6597C34.1581 62.6995 34.2697 62.7329 34.3605 62.7501C34.4046 62.7588 34.4447 62.7627 34.4598 62.7626C34.4664 62.7626 34.4651 62.761 34.4476 62.7637C34.431 62.767 34.3898 62.7735 34.3234 62.8138L34.5308 62.7329C34.573 62.7228 34.616 62.7138 34.6599 62.6976C34.7037 62.6813 34.7488 62.6643 34.794 62.6394C34.8396 62.6179 34.8853 62.5881 34.9312 62.5585C34.977 62.5279 35.0229 62.4937 35.0693 62.4577C35.2549 62.3118 35.4269 62.1189 35.591 61.9112C35.7547 61.7027 35.9029 61.4734 36.046 61.2376C36.1172 61.1193 36.1837 60.9977 36.2508 60.8751L36.3503 60.689L36.4002 60.5927L36.4275 60.5397L36.4453 60.5051L36.4566 60.4838C36.4727 60.452 36.5048 60.4048 36.5358 60.3723L36.4387 60.5352C36.467 60.4731 36.4832 60.4124 36.471 60.3286C36.4594 60.2463 36.4173 60.1479 36.3557 60.0468C36.2288 59.8444 36.0288 59.6419 35.8096 59.4557C35.59 59.2667 35.3459 59.0915 35.0957 58.9183C34.844 58.7473 34.5826 58.5832 34.3146 58.4202Z" fill="white"/>
<path d="M38.0011 62.2114C38.2044 62.2868 38.398 62.3695 38.5921 62.4512C38.7862 62.5324 38.9763 62.6163 39.1647 62.7002L39.7255 62.947C39.8189 62.986 39.9095 63.0305 40.0017 63.0664C40.0933 63.1044 40.1856 63.1406 40.2749 63.1806L40.054 63.1256C40.1212 63.1257 40.1953 63.1418 40.2563 63.1694C40.3245 63.1992 40.3972 63.2573 40.4406 63.3189C40.4694 63.3596 40.4902 63.4027 40.5039 63.4484C40.5119 63.476 40.5122 63.4814 40.5146 63.4935L40.5193 63.5274C40.5237 63.5826 40.5208 63.5937 40.5192 63.62C40.5163 63.6481 40.5146 63.6535 40.5119 63.67C40.5012 63.7222 40.4917 63.7482 40.4836 63.7732C40.467 63.8213 40.4528 63.8553 40.4384 63.8891C40.4101 63.9545 40.3825 64.0116 40.3542 64.0676C40.2978 64.1788 40.2364 64.2813 40.1746 64.3837C40.0518 64.5881 39.9146 64.781 39.7684 64.9711C39.6227 65.1619 39.4599 65.3426 39.2814 65.522C39.0986 65.6991 38.9004 65.8696 38.6307 66.0264L38.7281 65.9581C38.6865 65.9931 38.6387 66.0248 38.5891 66.05C38.5421 66.0732 38.5103 66.0833 38.4683 66.0964C38.4236 66.1095 38.3968 66.1136 38.3692 66.1177C38.3419 66.1215 38.3085 66.1251 38.2863 66.1257C38.1976 66.1284 38.1319 66.12 38.0795 66.1112C37.9733 66.0926 37.902 66.0691 37.8325 66.0456C37.6967 65.9981 37.5857 65.947 37.4785 65.8939C37.2654 65.7879 37.0784 65.6671 36.8946 65.5439C36.7115 65.4202 36.5416 65.284 36.375 65.1447C36.2094 65.0045 36.0546 64.8529 35.9043 64.6971L36.0215 63.9648C36.0058 63.9722 35.9907 63.9814 35.9771 63.9919C35.9682 63.999 35.9668 64.0006 35.9671 64.0004L35.9655 64.0028C35.961 64.0088 35.9658 64.0063 35.9722 64.0019C35.9817 63.9974 36.001 63.9804 36.0173 63.9668C36.0525 63.9367 36.0913 63.8993 36.1298 63.8615L36.3688 63.6214C36.5299 63.4563 36.695 63.2885 36.8663 63.124C37.0359 62.9582 37.2136 62.7966 37.3977 62.639C37.4922 62.562 37.5876 62.4854 37.6852 62.4111C37.7858 62.3393 37.8881 62.2665 38.0011 62.2114ZM38.0011 62.2114C37.9713 62.2638 37.9443 62.3154 37.9179 62.3672L37.8424 62.5247C37.791 62.6283 37.7422 62.7333 37.6943 62.839C37.5939 63.0469 37.4943 63.2558 37.387 63.4606C37.2813 63.6669 37.171 63.8705 37.0509 64.0733C36.9905 64.1747 36.931 64.2772 36.8605 64.3796C36.8255 64.4313 36.7899 64.4832 36.7469 64.5394C36.7237 64.5687 36.7042 64.595 36.6708 64.6307C36.6564 64.6468 36.64 64.6644 36.6124 64.6886L36.5937 64.705C36.5887 64.7095 36.5815 64.7157 36.5661 64.7266C36.54 64.745 36.5124 64.7622 36.4843 64.7775L36.6015 64.0452C36.7474 64.1624 36.9017 64.2719 37.0572 64.379C37.2117 64.4873 37.3738 64.5861 37.5335 64.6831C37.6931 64.7796 37.8591 64.8665 38.0151 64.9409C38.0926 64.9778 38.1701 65.0102 38.2301 65.0294C38.2586 65.0392 38.2869 65.0455 38.2833 65.0438C38.2821 65.0436 38.2686 65.0398 38.2318 65.0414C38.2227 65.0419 38.202 65.0427 38.1878 65.0452C38.173 65.0479 38.1591 65.0504 38.1266 65.0587C38.0965 65.0674 38.078 65.0751 38.0421 65.0922C38.0033 65.1106 37.9664 65.1354 37.9355 65.1636L38.0331 65.0953C38.1646 65.0253 38.3184 64.902 38.4656 64.7701C38.6163 64.6387 38.7591 64.488 38.9038 64.3362C39.0474 64.1834 39.1847 64.0222 39.3186 63.8615C39.3852 63.781 39.4479 63.6984 39.5072 63.62C39.5368 63.5811 39.5648 63.5421 39.5875 63.5093C39.5983 63.4938 39.6081 63.4784 39.612 63.4752C39.6141 63.4744 39.6139 63.4744 39.6092 63.5L39.6054 63.53C39.6043 63.5494 39.6026 63.5536 39.6059 63.602L39.6102 63.6309L39.6198 63.671C39.6322 63.7137 39.6517 63.7535 39.6791 63.7911C39.7198 63.8508 39.7899 63.9061 39.8553 63.934C39.9127 63.961 39.9832 63.9761 40.0467 63.9757L39.8258 63.9206C39.736 63.8607 39.6493 63.7968 39.5617 63.735C39.4728 63.6738 39.3911 63.6082 39.3092 63.5415C39.228 63.4744 39.1435 63.4114 39.0669 63.3407L38.8343 63.132C38.6848 62.9877 38.5359 62.8442 38.3983 62.689C38.2582 62.5371 38.1232 62.3799 38.0011 62.2114Z" fill="white"/>
<path d="M31.4902 60.1308L32.4068 60.5931" stroke="white" stroke-width="6.8848" stroke-miterlimit="10"/>
<path d="M35.6895 62.6385L36.9769 63.5123" stroke="white" stroke-width="6.8848" stroke-miterlimit="10"/>
<path d="M26.5234 56.2007L27.1949 56.8814" stroke="white" stroke-width="6.8848" stroke-miterlimit="10"/>
<defs>
<linearGradient id="paint0_linear_4478_5175" x1="5.82015" y1="20.7455" x2="78.3922" y2="65.7469" gradientUnits="userSpaceOnUse">
<stop stop-color="#A853D7"/>
<stop offset="0.199" stop-color="#C6B6FF"/>
<stop offset="1" stop-color="#C76EFF"/>
</linearGradient>
</defs>
</svg>
